<svg width="101" height="90" viewBox="0 0 101 90" fill="none" xmlns="http://www.w3.org/2000/svg">
<path d="M83.7294 37.669C84.6061 45.6836 78.2695 51.7944 77.1741 52.8509C72.5694 57.2916 69.4208 56.3502 62.5475 59.6889C48.5767 66.4752 49.3984 76.2842 39.9252 77.6631C32.5945 78.7301 23.9676 74.0402 21.3984 67.8946C19.0216 62.2096 23.4648 59.1927 21.2034 52.4604C18.7343 45.1097 12.4923 45.8913 9.50217 38.589C6.70472 31.7571 9.10902 23.6015 12.8176 18.2704C13.6039 17.1401 19.7813 8.5261 29.0042 8.3065C37.5213 8.10375 38.6689 15.2972 51.2365 19.0519C60.5085 21.8221 62.4533 18.6742 69.9584 22.1778C72.2038 23.2261 82.6849 28.1189 83.7294 37.669Z" fill="#C5E7FC"/>
<g opacity="0.44">
<g opacity="0.44">
<g opacity="0.44">
<path opacity="0.44" d="M87.5972 79.0391C87.5972 79.2827 87.4004 79.4798 87.1601 79.4798H79.766C79.5256 79.4798 79.3289 79.2827 79.3289 79.0391V75.9071C79.3289 75.6636 79.5257 75.465 79.766 75.465H87.1601C87.4004 75.465 87.5972 75.6636 87.5972 75.9071V79.0391Z" fill="#F1F2F2"/>
</g>
<g opacity="0.44">
<path opacity="0.44" d="M78.7821 79.0391C78.7821 79.2827 78.5867 79.4798 78.345 79.4798H70.9524C70.7106 79.4798 70.5153 79.2827 70.5153 79.0391V75.9071C70.5153 75.6636 70.7107 75.465 70.9524 75.465H78.345C78.5868 75.465 78.7821 75.6636 78.7821 75.9071V79.0391Z" fill="#F1F2F2"/>
</g>
<g opacity="0.44">
<path opacity="0.44" d="M69.9677 79.0391C69.9677 79.2827 69.7722 79.4798 69.5305 79.4798H62.1378C61.8962 79.4798 61.7007 79.2827 61.7007 79.0391V75.9071C61.7007 75.6636 61.8962 75.465 62.1378 75.465H69.5305C69.7722 75.465 69.9677 75.6636 69.9677 75.9071V79.0391Z" fill="#F1F2F2"/>
</g>
<g opacity="0.44">
<path opacity="0.44" d="M61.1537 79.0391C61.1537 79.2827 60.9576 79.4798 60.7158 79.4798H53.3233C53.0814 79.4798 52.8862 79.2827 52.8862 79.0391V75.9071C52.8862 75.6636 53.0815 75.465 53.3233 75.465H60.7158C60.9576 75.465 61.1537 75.6636 61.1537 75.9071V79.0391Z" fill="#F1F2F2"/>
</g>
<g opacity="0.44">
<path opacity="0.44" d="M52.3393 79.0391C52.3393 79.2827 52.1432 79.4798 51.9022 79.4798H44.5088C44.2677 79.4798 44.0717 79.2827 44.0717 79.0391V75.9071C44.0717 75.6636 44.2678 75.465 44.5088 75.465H51.9022C52.1433 75.465 52.3393 75.6636 52.3393 75.9071V79.0391Z" fill="#F1F2F2"/>
</g>
<g opacity="0.44">
<path opacity="0.44" d="M43.5248 79.0391C43.5248 79.2827 43.3287 79.4798 43.0877 79.4798H35.6943C35.4532 79.4798 35.2572 79.2827 35.2572 79.0391V75.9071C35.2572 75.6636 35.4533 75.465 35.6943 75.465H43.0877C43.3287 75.465 43.5248 75.6636 43.5248 75.9071V79.0391Z" fill="#F1F2F2"/>
</g>
<g opacity="0.44">
<path opacity="0.44" d="M34.7102 79.0391C34.7102 79.2827 34.5149 79.4798 34.2731 79.4798H26.8797C26.6386 79.4798 26.4426 79.2827 26.4426 79.0391V75.9071C26.4426 75.6636 26.6387 75.465 26.8797 75.465H34.2731C34.5149 75.465 34.7102 75.6636 34.7102 75.9071V79.0391Z" fill="#F1F2F2"/>
</g>
<g opacity="0.44">
<path opacity="0.44" d="M25.8957 79.0391C25.8957 79.2827 25.7004 79.4798 25.4586 79.4798H18.0659C17.8243 79.4798 17.6288 79.2827 17.6288 79.0391V75.9071C17.6288 75.6636 17.8243 75.465 18.0659 75.465H25.4586C25.7005 75.465 25.8957 75.6636 25.8957 75.9071V79.0391Z" fill="#F1F2F2"/>
</g>
<g opacity="0.44">
<path opacity="0.44" d="M17.0813 79.0391C17.0813 79.2827 16.8859 79.4798 16.6442 79.4798H9.25145C9.00961 79.4798 8.81433 79.2827 8.81433 79.0391V75.9071C8.81433 75.6636 9.00971 75.465 9.25145 75.465H16.6442C16.8859 75.465 17.0813 75.6636 17.0813 75.9071V79.0391Z" fill="#F1F2F2"/>
</g>
<g opacity="0.44">
<path opacity="0.44" d="M8.26677 79.0391C8.26677 79.2827 8.07139 79.4798 7.82965 79.4798H0.437117C0.195275 79.4798 0 79.2827 0 79.0391V75.9071C0 75.6636 0.195275 75.465 0.437117 75.465H7.82965C8.07149 75.465 8.26677 75.6636 8.26677 75.9071V79.0391Z" fill="#F1F2F2"/>
</g>
<g opacity="0.44">
<path opacity="0.44" d="M87.5972 69.9319C87.5972 70.1756 87.4004 70.3742 87.1601 70.3742H79.766C79.5256 70.3742 79.3289 70.1757 79.3289 69.9319V66.8001C79.3289 66.5564 79.5257 66.3593 79.766 66.3593H87.1601C87.4004 66.3593 87.5972 66.5564 87.5972 66.8001V69.9319Z" fill="#F1F2F2"/>
</g>
<g opacity="0.44">
<path opacity="0.44" d="M78.7821 69.9319C78.7821 70.1756 78.5867 70.3742 78.345 70.3742H70.9524C70.7106 70.3742 70.5153 70.1757 70.5153 69.9319V66.8001C70.5153 66.5564 70.7107 66.3593 70.9524 66.3593H78.345C78.5868 66.3593 78.7821 66.5564 78.7821 66.8001V69.9319Z" fill="#F1F2F2"/>
</g>
<g opacity="0.44">
<path opacity="0.44" d="M69.9677 69.9319C69.9677 70.1756 69.7722 70.3742 69.5305 70.3742H62.1378C61.8962 70.3742 61.7007 70.1757 61.7007 69.9319V66.8001C61.7007 66.5564 61.8962 66.3593 62.1378 66.3593H69.5305C69.7722 66.3593 69.9677 66.5564 69.9677 66.8001V69.9319Z" fill="#F1F2F2"/>
</g>
<g opacity="0.44">
<path opacity="0.44" d="M61.1537 69.9319C61.1537 70.1756 60.9576 70.3742 60.7158 70.3742H53.3233C53.0814 70.3742 52.8862 70.1757 52.8862 69.9319V66.8001C52.8862 66.5564 53.0815 66.3593 53.3233 66.3593H60.7158C60.9576 66.3593 61.1537 66.5564 61.1537 66.8001V69.9319Z" fill="#F1F2F2"/>
</g>
<g opacity="0.44">
<path opacity="0.44" d="M52.3393 69.9319C52.3393 70.1756 52.1432 70.3742 51.9022 70.3742H44.5088C44.2677 70.3742 44.0717 70.1757 44.0717 69.9319V66.8001C44.0717 66.5564 44.2678 66.3593 44.5088 66.3593H51.9022C52.1433 66.3593 52.3393 66.5564 52.3393 66.8001V69.9319Z" fill="#F1F2F2"/>
</g>
<g opacity="0.44">
<path opacity="0.44" d="M43.5248 69.9319C43.5248 70.1756 43.3287 70.3742 43.0877 70.3742H35.6943C35.4532 70.3742 35.2572 70.1757 35.2572 69.9319V66.8001C35.2572 66.5564 35.4533 66.3593 35.6943 66.3593H43.0877C43.3287 66.3593 43.5248 66.5564 43.5248 66.8001V69.9319Z" fill="#F1F2F2"/>
</g>
<g opacity="0.44">
<path opacity="0.44" d="M34.7102 69.9319C34.7102 70.1756 34.5149 70.3742 34.2731 70.3742H26.8797C26.6386 70.3742 26.4426 70.1757 26.4426 69.9319V66.8001C26.4426 66.5564 26.6387 66.3593 26.8797 66.3593H34.2731C34.5149 66.3593 34.7102 66.5564 34.7102 66.8001V69.9319Z" fill="#F1F2F2"/>
</g>
<g opacity="0.44">
<path opacity="0.44" d="M25.8957 69.9319C25.8957 70.1756 25.7004 70.3742 25.4586 70.3742H18.0659C17.8243 70.3742 17.6288 70.1757 17.6288 69.9319V66.8001C17.6288 66.5564 17.8243 66.3593 18.0659 66.3593H25.4586C25.7005 66.3593 25.8957 66.5564 25.8957 66.8001V69.9319Z" fill="#F1F2F2"/>
</g>
<g opacity="0.44">
<path opacity="0.44" d="M17.0813 69.9319C17.0813 70.1756 16.8859 70.3742 16.6442 70.3742H9.25145C9.00961 70.3742 8.81433 70.1757 8.81433 69.9319V66.8001C8.81433 66.5564 9.00971 66.3593 9.25145 66.3593H16.6442C16.8859 66.3593 17.0813 66.5564 17.0813 66.8001V69.9319Z" fill="#F1F2F2"/>
</g>
<g opacity="0.44">
<path opacity="0.44" d="M8.26677 69.9319C8.26677 70.1756 8.07139 70.3742 7.82965 70.3742H0.437117C0.195275 70.3742 0 70.1757 0 69.9319V66.8001C0 66.5564 0.195275 66.3593 0.437117 66.3593H7.82965C8.07149 66.3593 8.26677 66.5564 8.26677 66.8001V69.9319Z" fill="#F1F2F2"/>
</g>
<g opacity="0.44">
<path opacity="0.44" d="M87.5972 60.8264C87.5972 61.0699 87.4004 61.2672 87.1601 61.2672H79.766C79.5256 61.2672 79.3289 61.0699 79.3289 60.8264V57.6944C79.3289 57.4508 79.5257 57.2523 79.766 57.2523H87.1601C87.4004 57.2523 87.5972 57.4508 87.5972 57.6944V60.8264Z" fill="#F1F2F2"/>
</g>
<g opacity="0.44">
<path opacity="0.44" d="M78.7821 60.8264C78.7821 61.0699 78.5867 61.2672 78.345 61.2672H70.9524C70.7106 61.2672 70.5153 61.0699 70.5153 60.8264V57.6944C70.5153 57.4508 70.7107 57.2523 70.9524 57.2523H78.345C78.5868 57.2523 78.7821 57.4508 78.7821 57.6944V60.8264Z" fill="#F1F2F2"/>
</g>
<g opacity="0.44">
<path opacity="0.44" d="M69.9677 60.8264C69.9677 61.0699 69.7722 61.2672 69.5305 61.2672H62.1378C61.8962 61.2672 61.7007 61.0699 61.7007 60.8264V57.6944C61.7007 57.4508 61.8962 57.2523 62.1378 57.2523H69.5305C69.7722 57.2523 69.9677 57.4508 69.9677 57.6944V60.8264Z" fill="#F1F2F2"/>
</g>
<g opacity="0.44">
<path opacity="0.44" d="M61.1537 60.8264C61.1537 61.0699 60.9576 61.2672 60.7158 61.2672H53.3233C53.0814 61.2672 52.8862 61.0699 52.8862 60.8264V57.6944C52.8862 57.4508 53.0815 57.2523 53.3233 57.2523H60.7158C60.9576 57.2523 61.1537 57.4508 61.1537 57.6944V60.8264Z" fill="#F1F2F2"/>
</g>
<g opacity="0.44">
<path opacity="0.44" d="M52.3393 60.8264C52.3393 61.0699 52.1432 61.2672 51.9022 61.2672H44.5088C44.2677 61.2672 44.0717 61.0699 44.0717 60.8264V57.6944C44.0717 57.4508 44.2678 57.2523 44.5088 57.2523H51.9022C52.1433 57.2523 52.3393 57.4508 52.3393 57.6944V60.8264Z" fill="#F1F2F2"/>
</g>
<g opacity="0.44">
<path opacity="0.44" d="M43.5248 60.8264C43.5248 61.0699 43.3287 61.2672 43.0877 61.2672H35.6943C35.4532 61.2672 35.2572 61.0699 35.2572 60.8264V57.6944C35.2572 57.4508 35.4533 57.2523 35.6943 57.2523H43.0877C43.3287 57.2523 43.5248 57.4508 43.5248 57.6944V60.8264Z" fill="#F1F2F2"/>
</g>
<g opacity="0.44">
<path opacity="0.44" d="M34.7102 60.8264C34.7102 61.0699 34.5149 61.2672 34.2731 61.2672H26.8797C26.6386 61.2672 26.4426 61.0699 26.4426 60.8264V57.6944C26.4426 57.4508 26.6387 57.2523 26.8797 57.2523H34.2731C34.5149 57.2523 34.7102 57.4508 34.7102 57.6944V60.8264Z" fill="#F1F2F2"/>
</g>
<g opacity="0.44">
<path opacity="0.44" d="M25.8957 60.8264C25.8957 61.0699 25.7004 61.2672 25.4586 61.2672H18.0659C17.8243 61.2672 17.6288 61.0699 17.6288 60.8264V57.6944C17.6288 57.4508 17.8243 57.2523 18.0659 57.2523H25.4586C25.7005 57.2523 25.8957 57.4508 25.8957 57.6944V60.8264Z" fill="#F1F2F2"/>
</g>
<g opacity="0.44">
<path opacity="0.44" d="M17.0813 60.8264C17.0813 61.0699 16.8859 61.2672 16.6442 61.2672H9.25145C9.00961 61.2672 8.81433 61.0699 8.81433 60.8264V57.6944C8.81433 57.4508 9.00971 57.2523 9.25145 57.2523H16.6442C16.8859 57.2523 17.0813 57.4508 17.0813 57.6944V60.8264Z" fill="#F1F2F2"/>
</g>
<g opacity="0.44">
<path opacity="0.44" d="M8.26677 60.8264C8.26677 61.0699 8.07139 61.2672 7.82965 61.2672H0.437117C0.195275 61.2672 0 61.0699 0 60.8264V57.6944C0 57.4508 0.195275 57.2523 0.437117 57.2523H7.82965C8.07149 57.2523 8.26677 57.4508 8.26677 57.6944V60.8264Z" fill="#F1F2F2"/>
</g>
<g opacity="0.44">
<path opacity="0.44" d="M87.5972 51.7193C87.5972 51.9628 87.4004 52.1614 87.1601 52.1614H79.766C79.5256 52.1614 79.3289 51.9628 79.3289 51.7193V48.5873C79.3289 48.3436 79.5257 48.1465 79.766 48.1465H87.1601C87.4004 48.1465 87.5972 48.3436 87.5972 48.5873V51.7193Z" fill="#F1F2F2"/>
</g>
<g opacity="0.44">
<path opacity="0.44" d="M78.7821 51.7193C78.7821 51.9628 78.5867 52.1614 78.345 52.1614H70.9524C70.7106 52.1614 70.5153 51.9628 70.5153 51.7193V48.5873C70.5153 48.3436 70.7107 48.1465 70.9524 48.1465H78.345C78.5868 48.1465 78.7821 48.3436 78.7821 48.5873V51.7193Z" fill="#F1F2F2"/>
</g>
<g opacity="0.44">
<path opacity="0.44" d="M69.9677 51.7193C69.9677 51.9628 69.7722 52.1614 69.5305 52.1614H62.1378C61.8962 52.1614 61.7007 51.9628 61.7007 51.7193V48.5873C61.7007 48.3436 61.8962 48.1465 62.1378 48.1465H69.5305C69.7722 48.1465 69.9677 48.3436 69.9677 48.5873V51.7193Z" fill="#F1F2F2"/>
</g>
<g opacity="0.44">
<path opacity="0.44" d="M61.1537 51.7193C61.1537 51.9628 60.9576 52.1614 60.7158 52.1614H53.3233C53.0814 52.1614 52.8862 51.9628 52.8862 51.7193V48.5873C52.8862 48.3436 53.0815 48.1465 53.3233 48.1465H60.7158C60.9576 48.1465 61.1537 48.3436 61.1537 48.5873V51.7193Z" fill="#F1F2F2"/>
</g>
<g opacity="0.44">
<path opacity="0.44" d="M52.3393 51.7193C52.3393 51.9628 52.1432 52.1614 51.9022 52.1614H44.5088C44.2677 52.1614 44.0717 51.9628 44.0717 51.7193V48.5873C44.0717 48.3436 44.2678 48.1465 44.5088 48.1465H51.9022C52.1433 48.1465 52.3393 48.3436 52.3393 48.5873V51.7193Z" fill="#F1F2F2"/>
</g>
<g opacity="0.44">
<path opacity="0.44" d="M43.5248 51.7193C43.5248 51.9628 43.3287 52.1614 43.0877 52.1614H35.6943C35.4532 52.1614 35.2572 51.9628 35.2572 51.7193V48.5873C35.2572 48.3436 35.4533 48.1465 35.6943 48.1465H43.0877C43.3287 48.1465 43.5248 48.3436 43.5248 48.5873V51.7193Z" fill="#F1F2F2"/>
</g>
<g opacity="0.44">
<path opacity="0.44" d="M34.7102 51.7193C34.7102 51.9628 34.5149 52.1614 34.2731 52.1614H26.8797C26.6386 52.1614 26.4426 51.9628 26.4426 51.7193V48.5873C26.4426 48.3436 26.6387 48.1465 26.8797 48.1465H34.2731C34.5149 48.1465 34.7102 48.3436 34.7102 48.5873V51.7193Z" fill="#F1F2F2"/>
</g>
<g opacity="0.44">
<path opacity="0.44" d="M25.8957 51.7193C25.8957 51.9628 25.7004 52.1614 25.4586 52.1614H18.0659C17.8243 52.1614 17.6288 51.9628 17.6288 51.7193V48.5873C17.6288 48.3436 17.8243 48.1465 18.0659 48.1465H25.4586C25.7005 48.1465 25.8957 48.3436 25.8957 48.5873V51.7193Z" fill="#F1F2F2"/>
</g>
<g opacity="0.44">
<path opacity="0.44" d="M17.0813 51.7193C17.0813 51.9628 16.8859 52.1614 16.6442 52.1614H9.25145C9.00961 52.1614 8.81433 51.9628 8.81433 51.7193V48.5873C8.81433 48.3436 9.00971 48.1465 9.25145 48.1465H16.6442C16.8859 48.1465 17.0813 48.3436 17.0813 48.5873V51.7193Z" fill="#F1F2F2"/>
</g>
<g opacity="0.44">
<path opacity="0.44" d="M8.26677 51.7193C8.26677 51.9628 8.07139 52.1614 7.82965 52.1614H0.437117C0.195275 52.1614 0 51.9628 0 51.7193V48.5873C0 48.3436 0.195275 48.1465 0.437117 48.1465H7.82965C8.07149 48.1465 8.26677 48.3436 8.26677 48.5873V51.7193Z" fill="#F1F2F2"/>
</g>
<g opacity="0.44">
<path opacity="0.44" d="M87.5972 42.6136C87.5972 42.8573 87.4004 43.0544 87.1601 43.0544H79.766C79.5256 43.0544 79.3289 42.8573 79.3289 42.6136V39.4816C79.3289 39.2381 79.5257 39.0395 79.766 39.0395H87.1601C87.4004 39.0395 87.5972 39.2381 87.5972 39.4816V42.6136Z" fill="#F1F2F2"/>
</g>
<g opacity="0.44">
<path opacity="0.44" d="M78.7821 42.6136C78.7821 42.8573 78.5867 43.0544 78.345 43.0544H70.9524C70.7106 43.0544 70.5153 42.8573 70.5153 42.6136V39.4816C70.5153 39.2381 70.7107 39.0395 70.9524 39.0395H78.345C78.5868 39.0395 78.7821 39.2381 78.7821 39.4816V42.6136Z" fill="#F1F2F2"/>
</g>
<g opacity="0.44">
<path opacity="0.44" d="M69.9677 42.6136C69.9677 42.8573 69.7722 43.0544 69.5305 43.0544H62.1378C61.8962 43.0544 61.7007 42.8573 61.7007 42.6136V39.4816C61.7007 39.2381 61.8962 39.0395 62.1378 39.0395H69.5305C69.7722 39.0395 69.9677 39.2381 69.9677 39.4816V42.6136Z" fill="#F1F2F2"/>
</g>
<g opacity="0.44">
<path opacity="0.44" d="M61.1537 42.6136C61.1537 42.8573 60.9576 43.0544 60.7158 43.0544H53.3233C53.0814 43.0544 52.8862 42.8573 52.8862 42.6136V39.4816C52.8862 39.2381 53.0815 39.0395 53.3233 39.0395H60.7158C60.9576 39.0395 61.1537 39.2381 61.1537 39.4816V42.6136Z" fill="#F1F2F2"/>
</g>
<g opacity="0.44">
<path opacity="0.44" d="M52.3393 42.6136C52.3393 42.8573 52.1432 43.0544 51.9022 43.0544H44.5088C44.2677 43.0544 44.0717 42.8573 44.0717 42.6136V39.4816C44.0717 39.2381 44.2678 39.0395 44.5088 39.0395H51.9022C52.1433 39.0395 52.3393 39.2381 52.3393 39.4816V42.6136Z" fill="#F1F2F2"/>
</g>
<g opacity="0.44">
<path opacity="0.44" d="M43.5248 42.6136C43.5248 42.8573 43.3287 43.0544 43.0877 43.0544H35.6943C35.4532 43.0544 35.2572 42.8573 35.2572 42.6136V39.4816C35.2572 39.2381 35.4533 39.0395 35.6943 39.0395H43.0877C43.3287 39.0395 43.5248 39.2381 43.5248 39.4816V42.6136Z" fill="#F1F2F2"/>
</g>
<g opacity="0.44">
<path opacity="0.44" d="M34.7102 42.6136C34.7102 42.8573 34.5149 43.0544 34.2731 43.0544H26.8797C26.6386 43.0544 26.4426 42.8573 26.4426 42.6136V39.4816C26.4426 39.2381 26.6387 39.0395 26.8797 39.0395H34.2731C34.5149 39.0395 34.7102 39.2381 34.7102 39.4816V42.6136Z" fill="#F1F2F2"/>
</g>
<g opacity="0.44">
<path opacity="0.44" d="M25.8957 42.6136C25.8957 42.8573 25.7004 43.0544 25.4586 43.0544H18.0659C17.8243 43.0544 17.6288 42.8573 17.6288 42.6136V39.4816C17.6288 39.2381 17.8243 39.0395 18.0659 39.0395H25.4586C25.7005 39.0395 25.8957 39.2381 25.8957 39.4816V42.6136Z" fill="#F1F2F2"/>
</g>
<g opacity="0.44">
<path opacity="0.44" d="M17.0813 42.6136C17.0813 42.8573 16.8859 43.0544 16.6442 43.0544H9.25145C9.00961 43.0544 8.81433 42.8573 8.81433 42.6136V39.4816C8.81433 39.2381 9.00971 39.0395 9.25145 39.0395H16.6442C16.8859 39.0395 17.0813 39.2381 17.0813 39.4816V42.6136Z" fill="#F1F2F2"/>
</g>
<g opacity="0.44">
<path opacity="0.44" d="M8.26677 42.6136C8.26677 42.8573 8.07139 43.0544 7.82965 43.0544H0.437117C0.195275 43.0544 0 42.8573 0 42.6136V39.4816C0 39.2381 0.195275 39.0395 0.437117 39.0395H7.82965C8.07149 39.0395 8.26677 39.2381 8.26677 39.4816V42.6136Z" fill="#F1F2F2"/>
</g>
<g opacity="0.44">
<path opacity="0.44" d="M87.5972 33.5065C87.5972 33.7501 87.4004 33.9486 87.1601 33.9486H79.766C79.5256 33.9486 79.3289 33.7501 79.3289 33.5065V30.3746C79.3289 30.131 79.5257 29.9338 79.766 29.9338H87.1601C87.4004 29.9338 87.5972 30.131 87.5972 30.3746V33.5065Z" fill="#F1F2F2"/>
</g>
<g opacity="0.44">
<path opacity="0.44" d="M78.7821 33.5065C78.7821 33.7501 78.5867 33.9486 78.345 33.9486H70.9524C70.7106 33.9486 70.5153 33.7501 70.5153 33.5065V30.3746C70.5153 30.131 70.7107 29.9338 70.9524 29.9338H78.345C78.5868 29.9338 78.7821 30.131 78.7821 30.3746V33.5065Z" fill="#F1F2F2"/>
</g>
<g opacity="0.44">
<path opacity="0.44" d="M69.9677 33.5065C69.9677 33.7501 69.7722 33.9486 69.5305 33.9486H62.1378C61.8962 33.9486 61.7007 33.7501 61.7007 33.5065V30.3746C61.7007 30.131 61.8962 29.9338 62.1378 29.9338H69.5305C69.7722 29.9338 69.9677 30.131 69.9677 30.3746V33.5065Z" fill="#F1F2F2"/>
</g>
<g opacity="0.44">
<path opacity="0.44" d="M61.1537 33.5065C61.1537 33.7501 60.9576 33.9486 60.7158 33.9486H53.3233C53.0814 33.9486 52.8862 33.7501 52.8862 33.5065V30.3746C52.8862 30.131 53.0815 29.9338 53.3233 29.9338H60.7158C60.9576 29.9338 61.1537 30.131 61.1537 30.3746V33.5065Z" fill="#F1F2F2"/>
</g>
<g opacity="0.44">
<path opacity="0.44" d="M52.3393 33.5065C52.3393 33.7501 52.1432 33.9486 51.9022 33.9486H44.5088C44.2677 33.9486 44.0717 33.7501 44.0717 33.5065V30.3746C44.0717 30.131 44.2678 29.9338 44.5088 29.9338H51.9022C52.1433 29.9338 52.3393 30.131 52.3393 30.3746V33.5065Z" fill="#F1F2F2"/>
</g>
<g opacity="0.44">
<path opacity="0.44" d="M43.5248 33.5065C43.5248 33.7501 43.3287 33.9486 43.0877 33.9486H35.6943C35.4532 33.9486 35.2572 33.7501 35.2572 33.5065V30.3746C35.2572 30.131 35.4533 29.9338 35.6943 29.9338H43.0877C43.3287 29.9338 43.5248 30.131 43.5248 30.3746V33.5065Z" fill="#F1F2F2"/>
</g>
<g opacity="0.44">
<path opacity="0.44" d="M34.7102 33.5065C34.7102 33.7501 34.5149 33.9486 34.2731 33.9486H26.8797C26.6386 33.9486 26.4426 33.7501 26.4426 33.5065V30.3746C26.4426 30.131 26.6387 29.9338 26.8797 29.9338H34.2731C34.5149 29.9338 34.7102 30.131 34.7102 30.3746V33.5065Z" fill="#F1F2F2"/>
</g>
<g opacity="0.44">
<path opacity="0.44" d="M25.8957 33.5065C25.8957 33.7501 25.7004 33.9486 25.4586 33.9486H18.0659C17.8243 33.9486 17.6288 33.7501 17.6288 33.5065V30.3746C17.6288 30.131 17.8243 29.9338 18.0659 29.9338H25.4586C25.7005 29.9338 25.8957 30.131 25.8957 30.3746V33.5065Z" fill="#F1F2F2"/>
</g>
<g opacity="0.44">
<path opacity="0.44" d="M17.0813 33.5065C17.0813 33.7501 16.8859 33.9486 16.6442 33.9486H9.25145C9.00961 33.9486 8.81433 33.7501 8.81433 33.5065V30.3746C8.81433 30.131 9.00971 29.9338 9.25145 29.9338H16.6442C16.8859 29.9338 17.0813 30.131 17.0813 30.3746V33.5065Z" fill="#F1F2F2"/>
</g>
<g opacity="0.44">
<path opacity="0.44" d="M8.26677 33.5065C8.26677 33.7501 8.07139 33.9486 7.82965 33.9486H0.437117C0.195275 33.9486 0 33.7501 0 33.5065V30.3746C0 30.131 0.195275 29.9338 0.437117 29.9338H7.82965C8.07149 29.9338 8.26677 30.131 8.26677 30.3746V33.5065Z" fill="#F1F2F2"/>
</g>
<g opacity="0.44">
<path opacity="0.44" d="M87.5972 24.4008C87.5972 24.6445 87.4004 24.8417 87.1601 24.8417H79.766C79.5256 24.8417 79.3289 24.6445 79.3289 24.4008V21.2689C79.3289 21.0253 79.5257 20.8268 79.766 20.8268H87.1601C87.4004 20.8268 87.5972 21.0253 87.5972 21.2689V24.4008Z" fill="#F1F2F2"/>
</g>
<g opacity="0.44">
<path opacity="0.44" d="M78.7821 24.4008C78.7821 24.6445 78.5867 24.8417 78.345 24.8417H70.9524C70.7106 24.8417 70.5153 24.6445 70.5153 24.4008V21.2689C70.5153 21.0253 70.7107 20.8268 70.9524 20.8268H78.345C78.5868 20.8268 78.7821 21.0253 78.7821 21.2689V24.4008Z" fill="#F1F2F2"/>
</g>
<g opacity="0.44">
<path opacity="0.44" d="M69.9677 24.4008C69.9677 24.6445 69.7722 24.8417 69.5305 24.8417H62.1378C61.8962 24.8417 61.7007 24.6445 61.7007 24.4008V21.2689C61.7007 21.0253 61.8962 20.8268 62.1378 20.8268H69.5305C69.7722 20.8268 69.9677 21.0253 69.9677 21.2689V24.4008Z" fill="#F1F2F2"/>
</g>
<g opacity="0.44">
<path opacity="0.44" d="M61.1537 24.4008C61.1537 24.6445 60.9576 24.8417 60.7158 24.8417H53.3233C53.0814 24.8417 52.8862 24.6445 52.8862 24.4008V21.2689C52.8862 21.0253 53.0815 20.8268 53.3233 20.8268H60.7158C60.9576 20.8268 61.1537 21.0253 61.1537 21.2689V24.4008Z" fill="#F1F2F2"/>
</g>
<g opacity="0.44">
<path opacity="0.44" d="M52.3393 24.4008C52.3393 24.6445 52.1432 24.8417 51.9022 24.8417H44.5088C44.2677 24.8417 44.0717 24.6445 44.0717 24.4008V21.2689C44.0717 21.0253 44.2678 20.8268 44.5088 20.8268H51.9022C52.1433 20.8268 52.3393 21.0253 52.3393 21.2689V24.4008Z" fill="#F1F2F2"/>
</g>
<g opacity="0.44">
<path opacity="0.44" d="M43.5248 24.4008C43.5248 24.6445 43.3287 24.8417 43.0877 24.8417H35.6943C35.4532 24.8417 35.2572 24.6445 35.2572 24.4008V21.2689C35.2572 21.0253 35.4533 20.8268 35.6943 20.8268H43.0877C43.3287 20.8268 43.5248 21.0253 43.5248 21.2689V24.4008Z" fill="#F1F2F2"/>
</g>
<g opacity="0.44">
<path opacity="0.44" d="M34.7102 24.4008C34.7102 24.6445 34.5149 24.8417 34.2731 24.8417H26.8797C26.6386 24.8417 26.4426 24.6445 26.4426 24.4008V21.2689C26.4426 21.0253 26.6387 20.8268 26.8797 20.8268H34.2731C34.5149 20.8268 34.7102 21.0253 34.7102 21.2689V24.4008Z" fill="#F1F2F2"/>
</g>
<g opacity="0.44">
<path opacity="0.44" d="M25.8957 24.4008C25.8957 24.6445 25.7004 24.8417 25.4586 24.8417H18.0659C17.8243 24.8417 17.6288 24.6445 17.6288 24.4008V21.2689C17.6288 21.0253 17.8243 20.8268 18.0659 20.8268H25.4586C25.7005 20.8268 25.8957 21.0253 25.8957 21.2689V24.4008Z" fill="#F1F2F2"/>
</g>
<g opacity="0.44">
<path opacity="0.44" d="M17.0813 24.4008C17.0813 24.6445 16.8859 24.8417 16.6442 24.8417H9.25145C9.00961 24.8417 8.81433 24.6445 8.81433 24.4008V21.2689C8.81433 21.0253 9.00971 20.8268 9.25145 20.8268H16.6442C16.8859 20.8268 17.0813 21.0253 17.0813 21.2689V24.4008Z" fill="#F1F2F2"/>
</g>
<g opacity="0.44">
<path opacity="0.44" d="M8.26677 24.4008C8.26677 24.6445 8.07139 24.8417 7.82965 24.8417H0.437117C0.195275 24.8417 0 24.6445 0 24.4008V21.2689C0 21.0253 0.195275 20.8268 0.437117 20.8268H7.82965C8.07149 20.8268 8.26677 21.0253 8.26677 21.2689V24.4008Z" fill="#F1F2F2"/>
</g>
<g opacity="0.44">
<path opacity="0.44" d="M87.5972 15.2938C87.5972 15.5374 87.4004 15.7359 87.1601 15.7359H79.766C79.5256 15.7359 79.3289 15.5374 79.3289 15.2938V12.1619C79.3289 11.9183 79.5257 11.7212 79.766 11.7212H87.1601C87.4004 11.7212 87.5972 11.9183 87.5972 12.1619V15.2938Z" fill="#F1F2F2"/>
</g>
<g opacity="0.44">
<path opacity="0.44" d="M78.7821 15.2938C78.7821 15.5374 78.5867 15.7359 78.345 15.7359H70.9524C70.7106 15.7359 70.5153 15.5374 70.5153 15.2938V12.1619C70.5153 11.9183 70.7107 11.7212 70.9524 11.7212H78.345C78.5868 11.7212 78.7821 11.9183 78.7821 12.1619V15.2938Z" fill="#F1F2F2"/>
</g>
<g opacity="0.44">
<path opacity="0.44" d="M69.9677 15.2938C69.9677 15.5374 69.7722 15.7359 69.5305 15.7359H62.1378C61.8962 15.7359 61.7007 15.5374 61.7007 15.2938V12.1619C61.7007 11.9183 61.8962 11.7212 62.1378 11.7212H69.5305C69.7722 11.7212 69.9677 11.9183 69.9677 12.1619V15.2938Z" fill="#F1F2F2"/>
</g>
<g opacity="0.44">
<path opacity="0.44" d="M61.1537 15.2938C61.1537 15.5374 60.9576 15.7359 60.7158 15.7359H53.3233C53.0814 15.7359 52.8862 15.5374 52.8862 15.2938V12.1619C52.8862 11.9183 53.0815 11.7212 53.3233 11.7212H60.7158C60.9576 11.7212 61.1537 11.9183 61.1537 12.1619V15.2938Z" fill="#F1F2F2"/>
</g>
<g opacity="0.44">
<path opacity="0.44" d="M52.3393 15.2938C52.3393 15.5374 52.1432 15.7359 51.9022 15.7359H44.5088C44.2677 15.7359 44.0717 15.5374 44.0717 15.2938V12.1619C44.0717 11.9183 44.2678 11.7212 44.5088 11.7212H51.9022C52.1433 11.7212 52.3393 11.9183 52.3393 12.1619V15.2938Z" fill="#F1F2F2"/>
</g>
<g opacity="0.44">
<path opacity="0.44" d="M43.5248 15.2938C43.5248 15.5374 43.3287 15.7359 43.0877 15.7359H35.6943C35.4532 15.7359 35.2572 15.5374 35.2572 15.2938V12.1619C35.2572 11.9183 35.4533 11.7212 35.6943 11.7212H43.0877C43.3287 11.7212 43.5248 11.9183 43.5248 12.1619V15.2938Z" fill="#F1F2F2"/>
</g>
<g opacity="0.44">
<path opacity="0.44" d="M34.7102 15.2938C34.7102 15.5374 34.5149 15.7359 34.2731 15.7359H26.8797C26.6386 15.7359 26.4426 15.5374 26.4426 15.2938V12.1619C26.4426 11.9183 26.6387 11.7212 26.8797 11.7212H34.2731C34.5149 11.7212 34.7102 11.9183 34.7102 12.1619V15.2938Z" fill="#F1F2F2"/>
</g>
<g opacity="0.44">
<path opacity="0.44" d="M25.8957 15.2938C25.8957 15.5374 25.7004 15.7359 25.4586 15.7359H18.0659C17.8243 15.7359 17.6288 15.5374 17.6288 15.2938V12.1619C17.6288 11.9183 17.8243 11.7212 18.0659 11.7212H25.4586C25.7005 11.7212 25.8957 11.9183 25.8957 12.1619V15.2938Z" fill="#F1F2F2"/>
</g>
<g opacity="0.44">
<path opacity="0.44" d="M17.0813 15.2938C17.0813 15.5374 16.8859 15.7359 16.6442 15.7359H9.25145C9.00961 15.7359 8.81433 15.5374 8.81433 15.2938V12.1619C8.81433 11.9183 9.00971 11.7212 9.25145 11.7212H16.6442C16.8859 11.7212 17.0813 11.9183 17.0813 12.1619V15.2938Z" fill="#F1F2F2"/>
</g>
<g opacity="0.44">
<path opacity="0.44" d="M8.26677 15.2938C8.26677 15.5374 8.07139 15.7359 7.82965 15.7359H0.437117C0.195275 15.7359 0 15.5374 0 15.2938V12.1619C0 11.9183 0.195275 11.7212 0.437117 11.7212H7.82965C8.07149 11.7212 8.26677 11.9183 8.26677 12.1619V15.2938Z" fill="#F1F2F2"/>
</g>
<g opacity="0.44">
<path opacity="0.44" d="M87.5972 6.1875C87.5972 6.43108 87.4004 6.62892 87.1601 6.62892H79.766C79.5256 6.62892 79.3289 6.43108 79.3289 6.1875V3.05557C79.3289 2.81189 79.5257 2.61476 79.766 2.61476H87.1601C87.4004 2.61476 87.5972 2.81189 87.5972 3.05557V6.1875Z" fill="#F1F2F2"/>
</g>
<g opacity="0.44">
<path opacity="0.44" d="M78.7821 6.1875C78.7821 6.43108 78.5867 6.62892 78.345 6.62892H70.9524C70.7106 6.62892 70.5153 6.43108 70.5153 6.1875V3.05557C70.5153 2.81189 70.7107 2.61476 70.9524 2.61476H78.345C78.5868 2.61476 78.7821 2.81189 78.7821 3.05557V6.1875Z" fill="#F1F2F2"/>
</g>
<g opacity="0.44">
<path opacity="0.44" d="M69.9677 6.1875C69.9677 6.43108 69.7722 6.62892 69.5305 6.62892H62.1378C61.8962 6.62892 61.7007 6.43108 61.7007 6.1875V3.05557C61.7007 2.81189 61.8962 2.61476 62.1378 2.61476H69.5305C69.7722 2.61476 69.9677 2.81189 69.9677 3.05557V6.1875Z" fill="#F1F2F2"/>
</g>
<g opacity="0.44">
<path opacity="0.44" d="M61.1537 6.1875C61.1537 6.43108 60.9576 6.62892 60.7158 6.62892H53.3233C53.0814 6.62892 52.8862 6.43108 52.8862 6.1875V3.05557C52.8862 2.81189 53.0815 2.61476 53.3233 2.61476H60.7158C60.9576 2.61476 61.1537 2.81189 61.1537 3.05557V6.1875Z" fill="#F1F2F2"/>
</g>
<g opacity="0.44">
<path opacity="0.44" d="M52.3393 6.1875C52.3393 6.43108 52.1432 6.62892 51.9022 6.62892H44.5088C44.2677 6.62892 44.0717 6.43108 44.0717 6.1875V3.05557C44.0717 2.81189 44.2678 2.61476 44.5088 2.61476H51.9022C52.1433 2.61476 52.3393 2.81189 52.3393 3.05557V6.1875Z" fill="#F1F2F2"/>
</g>
<g opacity="0.44">
<path opacity="0.44" d="M43.5248 6.1875C43.5248 6.43108 43.3287 6.62892 43.0877 6.62892H35.6943C35.4532 6.62892 35.2572 6.43108 35.2572 6.1875V3.05557C35.2572 2.81189 35.4533 2.61476 35.6943 2.61476H43.0877C43.3287 2.61476 43.5248 2.81189 43.5248 3.05557V6.1875Z" fill="#F1F2F2"/>
</g>
<g opacity="0.44">
<path opacity="0.44" d="M34.7102 6.1875C34.7102 6.43108 34.5149 6.62892 34.2731 6.62892H26.8797C26.6386 6.62892 26.4426 6.43108 26.4426 6.1875V3.05557C26.4426 2.81189 26.6387 2.61476 26.8797 2.61476H34.2731C34.5149 2.61476 34.7102 2.81189 34.7102 3.05557V6.1875Z" fill="#F1F2F2"/>
</g>
<g opacity="0.44">
<path opacity="0.44" d="M25.8957 6.1875C25.8957 6.43108 25.7004 6.62892 25.4586 6.62892H18.0659C17.8243 6.62892 17.6288 6.43108 17.6288 6.1875V3.05557C17.6288 2.81189 17.8243 2.61476 18.0659 2.61476H25.4586C25.7005 2.61476 25.8957 2.81189 25.8957 3.05557V6.1875Z" fill="#F1F2F2"/>
</g>
<g opacity="0.44">
<path opacity="0.44" d="M17.0813 6.1875C17.0813 6.43108 16.8859 6.62892 16.6442 6.62892H9.25145C9.00961 6.62892 8.81433 6.43108 8.81433 6.1875V3.05557C8.81433 2.81189 9.00971 2.61476 9.25145 2.61476H16.6442C16.8859 2.61476 17.0813 2.81189 17.0813 3.05557V6.1875Z" fill="#F1F2F2"/>
</g>
<g opacity="0.44">
<path opacity="0.44" d="M8.26677 6.18753C8.26677 6.43111 8.07139 6.62894 7.82965 6.62894H0.437117C0.195275 6.62894 0 6.43111 0 6.18753V3.0556C0 2.81192 0.195275 2.61478 0.437117 2.61478H7.82965C8.07149 2.61478 8.26677 2.81192 8.26677 3.0556V6.18753Z" fill="#F1F2F2"/>
</g>
<g opacity="0.44">
<path opacity="0.44" d="M92.0043 83.4946C92.0043 83.7383 91.8088 83.9355 91.5671 83.9355H84.1729C83.9325 83.9355 83.7372 83.7383 83.7372 83.4946V80.3627C83.7372 80.1191 83.9326 79.9206 84.1729 79.9206H91.567C91.8087 79.9206 92.0042 80.1191 92.0042 80.3627V83.4946H92.0043Z" fill="#F1F2F2"/>
</g>
<g opacity="0.44">
<path opacity="0.44" d="M83.1889 83.4946C83.1889 83.7383 82.9935 83.9355 82.7518 83.9355H75.3592C75.1174 83.9355 74.922 83.7383 74.922 83.4946V80.3627C74.922 80.1191 75.1174 79.9206 75.3592 79.9206H82.7518C82.9936 79.9206 83.1889 80.1191 83.1889 80.3627V83.4946Z" fill="#F1F2F2"/>
</g>
<g opacity="0.44">
<path opacity="0.44" d="M74.3752 83.4946C74.3752 83.7383 74.1798 83.9355 73.9381 83.9355H66.5447C66.3037 83.9355 66.1074 83.7383 66.1074 83.4946V80.3627C66.1074 80.1191 66.3036 79.9206 66.5447 79.9206H73.9381C74.1799 79.9206 74.3752 80.1191 74.3752 80.3627V83.4946Z" fill="#F1F2F2"/>
</g>
<g opacity="0.44">
<path opacity="0.44" d="M65.5607 83.4946C65.5607 83.7383 65.3645 83.9355 65.1236 83.9355H57.7301C57.489 83.9355 57.293 83.7383 57.293 83.4946V80.3627C57.293 80.1191 57.4891 79.9206 57.7301 79.9206H65.1236C65.3645 79.9206 65.5607 80.1191 65.5607 80.3627V83.4946Z" fill="#F1F2F2"/>
</g>
<g opacity="0.44">
<path opacity="0.44" d="M56.7462 83.4946C56.7462 83.7383 56.5508 83.9355 56.3091 83.9355H48.9158C48.6747 83.9355 48.4787 83.7383 48.4787 83.4946V80.3627C48.4787 80.1191 48.6748 79.9206 48.9158 79.9206H56.3091C56.5509 79.9206 56.7462 80.1191 56.7462 80.3627V83.4946Z" fill="#F1F2F2"/>
</g>
<g opacity="0.44">
<path opacity="0.44" d="M47.9317 83.4946C47.9317 83.7383 47.7363 83.9355 47.4946 83.9355H40.1018C39.8602 83.9355 39.6647 83.7383 39.6647 83.4946V80.3627C39.6647 80.1191 39.8602 79.9206 40.1018 79.9206H47.4946C47.7364 79.9206 47.9317 80.1191 47.9317 80.3627V83.4946Z" fill="#F1F2F2"/>
</g>
<g opacity="0.44">
<path opacity="0.44" d="M39.1172 83.4946C39.1172 83.7383 38.9218 83.9355 38.6799 83.9355H31.2874C31.0456 83.9355 30.8503 83.7383 30.8503 83.4946V80.3627C30.8503 80.1191 31.0457 79.9206 31.2874 79.9206H38.6799C38.9218 79.9206 39.1172 80.1191 39.1172 80.3627V83.4946Z" fill="#F1F2F2"/>
</g>
<g opacity="0.44">
<path opacity="0.44" d="M30.3033 83.4946C30.3033 83.7383 30.1073 83.9355 29.8655 83.9355H22.4729C22.231 83.9355 22.0358 83.7383 22.0358 83.4946V80.3627C22.0358 80.1191 22.2311 79.9206 22.4729 79.9206H29.8655C30.1074 79.9206 30.3033 80.1191 30.3033 80.3627V83.4946Z" fill="#F1F2F2"/>
</g>
<g opacity="0.44">
<path opacity="0.44" d="M21.4889 83.4946C21.4889 83.7383 21.2927 83.9355 21.0517 83.9355H13.6583C13.4174 83.9355 13.2212 83.7383 13.2212 83.4946V80.3627C13.2212 80.1191 13.4174 79.9206 13.6583 79.9206H21.0517C21.2927 79.9206 21.4889 80.1191 21.4889 80.3627V83.4946Z" fill="#F1F2F2"/>
</g>
<g opacity="0.44">
<path opacity="0.44" d="M12.6743 83.4946C12.6743 83.7383 12.4782 83.9355 12.2372 83.9355H4.84386C4.60272 83.9355 4.40674 83.7383 4.40674 83.4946V80.3627C4.40674 80.1191 4.60282 79.9206 4.84386 79.9206H12.2372C12.4783 79.9206 12.6743 80.1191 12.6743 80.3627V83.4946Z" fill="#F1F2F2"/>
</g>
<g opacity="0.44">
<path opacity="0.44" d="M92.0043 74.3877C92.0043 74.6312 91.8088 74.8285 91.5671 74.8285H84.1729C83.9325 74.8285 83.7372 74.6312 83.7372 74.3877V71.2558C83.7372 71.0122 83.9326 70.8149 84.1729 70.8149H91.567C91.8087 70.8149 92.0042 71.0122 92.0042 71.2558V74.3877H92.0043Z" fill="#F1F2F2"/>
</g>
<g opacity="0.44">
<path opacity="0.44" d="M83.1889 74.3877C83.1889 74.6312 82.9935 74.8285 82.7518 74.8285H75.3592C75.1174 74.8285 74.922 74.6312 74.922 74.3877V71.2558C74.922 71.0122 75.1174 70.8149 75.3592 70.8149H82.7518C82.9936 70.8149 83.1889 71.0122 83.1889 71.2558V74.3877Z" fill="#F1F2F2"/>
</g>
<g opacity="0.44">
<path opacity="0.44" d="M74.3752 74.3877C74.3752 74.6312 74.1798 74.8285 73.9381 74.8285H66.5447C66.3037 74.8285 66.1074 74.6312 66.1074 74.3877V71.2558C66.1074 71.0122 66.3036 70.8149 66.5447 70.8149H73.9381C74.1799 70.8149 74.3752 71.0122 74.3752 71.2558V74.3877Z" fill="#F1F2F2"/>
</g>
<g opacity="0.44">
<path opacity="0.44" d="M65.5607 74.3877C65.5607 74.6312 65.3645 74.8285 65.1236 74.8285H57.7301C57.489 74.8285 57.293 74.6312 57.293 74.3877V71.2558C57.293 71.0122 57.4891 70.8149 57.7301 70.8149H65.1236C65.3645 70.8149 65.5607 71.0122 65.5607 71.2558V74.3877Z" fill="#F1F2F2"/>
</g>
<g opacity="0.44">
<path opacity="0.44" d="M56.7462 74.3877C56.7462 74.6312 56.5508 74.8285 56.3091 74.8285H48.9158C48.6747 74.8285 48.4787 74.6312 48.4787 74.3877V71.2558C48.4787 71.0122 48.6748 70.8149 48.9158 70.8149H56.3091C56.5509 70.8149 56.7462 71.0122 56.7462 71.2558V74.3877Z" fill="#F1F2F2"/>
</g>
<g opacity="0.44">
<path opacity="0.44" d="M47.9317 74.3877C47.9317 74.6312 47.7363 74.8285 47.4946 74.8285H40.1018C39.8602 74.8285 39.6647 74.6312 39.6647 74.3877V71.2558C39.6647 71.0122 39.8602 70.8149 40.1018 70.8149H47.4946C47.7364 70.8149 47.9317 71.0122 47.9317 71.2558V74.3877Z" fill="#F1F2F2"/>
</g>
<g opacity="0.44">
<path opacity="0.44" d="M39.1172 74.3877C39.1172 74.6312 38.9218 74.8285 38.6799 74.8285H31.2874C31.0456 74.8285 30.8503 74.6312 30.8503 74.3877V71.2558C30.8503 71.0122 31.0457 70.8149 31.2874 70.8149H38.6799C38.9218 70.8149 39.1172 71.0122 39.1172 71.2558V74.3877Z" fill="#F1F2F2"/>
</g>
<g opacity="0.44">
<path opacity="0.44" d="M30.3033 74.3877C30.3033 74.6312 30.1073 74.8285 29.8655 74.8285H22.4729C22.231 74.8285 22.0358 74.6312 22.0358 74.3877V71.2558C22.0358 71.0122 22.2311 70.8149 22.4729 70.8149H29.8655C30.1074 70.8149 30.3033 71.0122 30.3033 71.2558V74.3877Z" fill="#F1F2F2"/>
</g>
<g opacity="0.44">
<path opacity="0.44" d="M21.4889 74.3877C21.4889 74.6312 21.2927 74.8285 21.0517 74.8285H13.6583C13.4174 74.8285 13.2212 74.6312 13.2212 74.3877V71.2558C13.2212 71.0122 13.4174 70.8149 13.6583 70.8149H21.0517C21.2927 70.8149 21.4889 71.0122 21.4889 71.2558V74.3877Z" fill="#F1F2F2"/>
</g>
<g opacity="0.44">
<path opacity="0.44" d="M12.6743 74.3877C12.6743 74.6312 12.4782 74.8285 12.2372 74.8285H4.84386C4.60272 74.8285 4.40674 74.6312 4.40674 74.3877V71.2558C4.40674 71.0122 4.60282 70.8149 4.84386 70.8149H12.2372C12.4783 70.8149 12.6743 71.0122 12.6743 71.2558V74.3877Z" fill="#F1F2F2"/>
</g>
<g opacity="0.44">
<path opacity="0.44" d="M92.0043 65.2819C92.0043 65.5256 91.8088 65.7227 91.5671 65.7227H84.1729C83.9325 65.7227 83.7372 65.5256 83.7372 65.2819V62.1501C83.7372 61.9064 83.9326 61.7078 84.1729 61.7078H91.567C91.8087 61.7078 92.0042 61.9063 92.0042 62.1501V65.2819H92.0043Z" fill="#F1F2F2"/>
</g>
<g opacity="0.44">
<path opacity="0.44" d="M83.1889 65.2819C83.1889 65.5256 82.9935 65.7227 82.7518 65.7227H75.3592C75.1174 65.7227 74.922 65.5256 74.922 65.2819V62.1501C74.922 61.9064 75.1174 61.7078 75.3592 61.7078H82.7518C82.9936 61.7078 83.1889 61.9063 83.1889 62.1501V65.2819Z" fill="#F1F2F2"/>
</g>
<g opacity="0.44">
<path opacity="0.44" d="M74.3752 65.2819C74.3752 65.5256 74.1798 65.7227 73.9381 65.7227H66.5447C66.3037 65.7227 66.1074 65.5256 66.1074 65.2819V62.1501C66.1074 61.9064 66.3036 61.7078 66.5447 61.7078H73.9381C74.1799 61.7078 74.3752 61.9063 74.3752 62.1501V65.2819Z" fill="#F1F2F2"/>
</g>
<g opacity="0.44">
<path opacity="0.44" d="M65.5607 65.2819C65.5607 65.5256 65.3645 65.7227 65.1236 65.7227H57.7301C57.489 65.7227 57.293 65.5256 57.293 65.2819V62.1501C57.293 61.9064 57.4891 61.7078 57.7301 61.7078H65.1236C65.3645 61.7078 65.5607 61.9063 65.5607 62.1501V65.2819Z" fill="#F1F2F2"/>
</g>
<g opacity="0.44">
<path opacity="0.44" d="M56.7462 65.2819C56.7462 65.5256 56.5508 65.7227 56.3091 65.7227H48.9158C48.6747 65.7227 48.4787 65.5256 48.4787 65.2819V62.1501C48.4787 61.9064 48.6748 61.7078 48.9158 61.7078H56.3091C56.5509 61.7078 56.7462 61.9063 56.7462 62.1501V65.2819Z" fill="#F1F2F2"/>
</g>
<g opacity="0.44">
<path opacity="0.44" d="M47.9317 65.2819C47.9317 65.5256 47.7363 65.7227 47.4946 65.7227H40.1018C39.8602 65.7227 39.6647 65.5256 39.6647 65.2819V62.1501C39.6647 61.9064 39.8602 61.7078 40.1018 61.7078H47.4946C47.7364 61.7078 47.9317 61.9063 47.9317 62.1501V65.2819Z" fill="#F1F2F2"/>
</g>
<g opacity="0.44">
<path opacity="0.44" d="M39.1172 65.2819C39.1172 65.5256 38.9218 65.7227 38.6799 65.7227H31.2874C31.0456 65.7227 30.8503 65.5256 30.8503 65.2819V62.1501C30.8503 61.9064 31.0457 61.7078 31.2874 61.7078H38.6799C38.9218 61.7078 39.1172 61.9063 39.1172 62.1501V65.2819Z" fill="#F1F2F2"/>
</g>
<g opacity="0.44">
<path opacity="0.44" d="M30.3033 65.2819C30.3033 65.5256 30.1073 65.7227 29.8655 65.7227H22.4729C22.231 65.7227 22.0358 65.5256 22.0358 65.2819V62.1501C22.0358 61.9064 22.2311 61.7078 22.4729 61.7078H29.8655C30.1074 61.7078 30.3033 61.9063 30.3033 62.1501V65.2819Z" fill="#F1F2F2"/>
</g>
<g opacity="0.44">
<path opacity="0.44" d="M21.4889 65.2819C21.4889 65.5256 21.2927 65.7227 21.0517 65.7227H13.6583C13.4174 65.7227 13.2212 65.5256 13.2212 65.2819V62.1501C13.2212 61.9064 13.4174 61.7078 13.6583 61.7078H21.0517C21.2927 61.7078 21.4889 61.9063 21.4889 62.1501V65.2819Z" fill="#F1F2F2"/>
</g>
<g opacity="0.44">
<path opacity="0.44" d="M12.6743 65.2819C12.6743 65.5256 12.4782 65.7227 12.2372 65.7227H4.84386C4.60272 65.7227 4.40674 65.5256 4.40674 65.2819V62.1501C4.40674 61.9064 4.60282 61.7078 4.84386 61.7078H12.2372C12.4783 61.7078 12.6743 61.9063 12.6743 62.1501V65.2819Z" fill="#F1F2F2"/>
</g>
<g opacity="0.44">
<path opacity="0.44" d="M92.0043 56.1749C92.0043 56.4184 91.8088 56.617 91.5671 56.617H84.1729C83.9325 56.617 83.7372 56.4184 83.7372 56.1749V53.0429C83.7372 52.7993 83.9326 52.6022 84.1729 52.6022H91.567C91.8087 52.6022 92.0042 52.7993 92.0042 53.0429V56.1749H92.0043Z" fill="#F1F2F2"/>
</g>
<g opacity="0.44">
<path opacity="0.44" d="M83.1889 56.1749C83.1889 56.4184 82.9935 56.617 82.7518 56.617H75.3592C75.1174 56.617 74.922 56.4184 74.922 56.1749V53.0429C74.922 52.7993 75.1174 52.6022 75.3592 52.6022H82.7518C82.9936 52.6022 83.1889 52.7993 83.1889 53.0429V56.1749Z" fill="#F1F2F2"/>
</g>
<g opacity="0.44">
<path opacity="0.44" d="M74.3752 56.1749C74.3752 56.4184 74.1798 56.617 73.9381 56.617H66.5447C66.3037 56.617 66.1074 56.4184 66.1074 56.1749V53.0429C66.1074 52.7993 66.3036 52.6022 66.5447 52.6022H73.9381C74.1799 52.6022 74.3752 52.7993 74.3752 53.0429V56.1749Z" fill="#F1F2F2"/>
</g>
<g opacity="0.44">
<path opacity="0.44" d="M65.5607 56.1749C65.5607 56.4184 65.3645 56.617 65.1236 56.617H57.7301C57.489 56.617 57.293 56.4184 57.293 56.1749V53.0429C57.293 52.7993 57.4891 52.6022 57.7301 52.6022H65.1236C65.3645 52.6022 65.5607 52.7993 65.5607 53.0429V56.1749Z" fill="#F1F2F2"/>
</g>
<g opacity="0.44">
<path opacity="0.44" d="M56.7462 56.1749C56.7462 56.4184 56.5508 56.617 56.3091 56.617H48.9158C48.6747 56.617 48.4787 56.4184 48.4787 56.1749V53.0429C48.4787 52.7993 48.6748 52.6022 48.9158 52.6022H56.3091C56.5509 52.6022 56.7462 52.7993 56.7462 53.0429V56.1749Z" fill="#F1F2F2"/>
</g>
<g opacity="0.44">
<path opacity="0.44" d="M47.9317 56.1749C47.9317 56.4184 47.7363 56.617 47.4946 56.617H40.1018C39.8602 56.617 39.6647 56.4184 39.6647 56.1749V53.0429C39.6647 52.7993 39.8602 52.6022 40.1018 52.6022H47.4946C47.7364 52.6022 47.9317 52.7993 47.9317 53.0429V56.1749Z" fill="#F1F2F2"/>
</g>
<g opacity="0.44">
<path opacity="0.44" d="M39.1172 56.1749C39.1172 56.4184 38.9218 56.617 38.6799 56.617H31.2874C31.0456 56.617 30.8503 56.4184 30.8503 56.1749V53.0429C30.8503 52.7993 31.0457 52.6022 31.2874 52.6022H38.6799C38.9218 52.6022 39.1172 52.7993 39.1172 53.0429V56.1749Z" fill="#F1F2F2"/>
</g>
<g opacity="0.44">
<path opacity="0.44" d="M30.3033 56.1749C30.3033 56.4184 30.1073 56.617 29.8655 56.617H22.4729C22.231 56.617 22.0358 56.4184 22.0358 56.1749V53.0429C22.0358 52.7993 22.2311 52.6022 22.4729 52.6022H29.8655C30.1074 52.6022 30.3033 52.7993 30.3033 53.0429V56.1749Z" fill="#F1F2F2"/>
</g>
<g opacity="0.44">
<path opacity="0.44" d="M21.4889 56.1749C21.4889 56.4184 21.2927 56.617 21.0517 56.617H13.6583C13.4174 56.617 13.2212 56.4184 13.2212 56.1749V53.0429C13.2212 52.7993 13.4174 52.6022 13.6583 52.6022H21.0517C21.2927 52.6022 21.4889 52.7993 21.4889 53.0429V56.1749Z" fill="#F1F2F2"/>
</g>
<g opacity="0.44">
<path opacity="0.44" d="M12.6743 56.1749C12.6743 56.4184 12.4782 56.617 12.2372 56.617H4.84386C4.60272 56.617 4.40674 56.4184 4.40674 56.1749V53.0429C4.40674 52.7993 4.60282 52.6022 4.84386 52.6022H12.2372C12.4783 52.6022 12.6743 52.7993 12.6743 53.0429V56.1749Z" fill="#F1F2F2"/>
</g>
<g opacity="0.44">
<path opacity="0.44" d="M92.0043 47.0692C92.0043 47.3128 91.8088 47.51 91.5671 47.51H84.1729C83.9325 47.51 83.7372 47.3128 83.7372 47.0692V43.9373C83.7372 43.6937 83.9326 43.495 84.1729 43.495H91.567C91.8087 43.495 92.0042 43.6936 92.0042 43.9373V47.0692H92.0043Z" fill="#F1F2F2"/>
</g>
<g opacity="0.44">
<path opacity="0.44" d="M83.1889 47.0692C83.1889 47.3128 82.9935 47.51 82.7518 47.51H75.3592C75.1174 47.51 74.922 47.3128 74.922 47.0692V43.9373C74.922 43.6937 75.1174 43.495 75.3592 43.495H82.7518C82.9936 43.495 83.1889 43.6936 83.1889 43.9373V47.0692Z" fill="#F1F2F2"/>
</g>
<g opacity="0.44">
<path opacity="0.44" d="M74.3752 47.0692C74.3752 47.3128 74.1798 47.51 73.9381 47.51H66.5447C66.3037 47.51 66.1074 47.3128 66.1074 47.0692V43.9373C66.1074 43.6937 66.3036 43.495 66.5447 43.495H73.9381C74.1799 43.495 74.3752 43.6936 74.3752 43.9373V47.0692Z" fill="#F1F2F2"/>
</g>
<g opacity="0.44">
<path opacity="0.44" d="M65.5607 47.0692C65.5607 47.3128 65.3645 47.51 65.1236 47.51H57.7301C57.489 47.51 57.293 47.3128 57.293 47.0692V43.9373C57.293 43.6937 57.4891 43.495 57.7301 43.495H65.1236C65.3645 43.495 65.5607 43.6936 65.5607 43.9373V47.0692Z" fill="#F1F2F2"/>
</g>
<g opacity="0.44">
<path opacity="0.44" d="M56.7462 47.0692C56.7462 47.3128 56.5508 47.51 56.3091 47.51H48.9158C48.6747 47.51 48.4787 47.3128 48.4787 47.0692V43.9373C48.4787 43.6937 48.6748 43.495 48.9158 43.495H56.3091C56.5509 43.495 56.7462 43.6936 56.7462 43.9373V47.0692Z" fill="#F1F2F2"/>
</g>
<g opacity="0.44">
<path opacity="0.44" d="M47.9317 47.0692C47.9317 47.3128 47.7363 47.51 47.4946 47.51H40.1018C39.8602 47.51 39.6647 47.3128 39.6647 47.0692V43.9373C39.6647 43.6937 39.8602 43.495 40.1018 43.495H47.4946C47.7364 43.495 47.9317 43.6936 47.9317 43.9373V47.0692Z" fill="#F1F2F2"/>
</g>
<g opacity="0.44">
<path opacity="0.44" d="M39.1172 47.0692C39.1172 47.3128 38.9218 47.51 38.6799 47.51H31.2874C31.0456 47.51 30.8503 47.3128 30.8503 47.0692V43.9373C30.8503 43.6937 31.0457 43.495 31.2874 43.495H38.6799C38.9218 43.495 39.1172 43.6936 39.1172 43.9373V47.0692Z" fill="#F1F2F2"/>
</g>
<g opacity="0.44">
<path opacity="0.44" d="M30.3033 47.0692C30.3033 47.3128 30.1073 47.51 29.8655 47.51H22.4729C22.231 47.51 22.0358 47.3128 22.0358 47.0692V43.9373C22.0358 43.6937 22.2311 43.495 22.4729 43.495H29.8655C30.1074 43.495 30.3033 43.6936 30.3033 43.9373V47.0692Z" fill="#F1F2F2"/>
</g>
<g opacity="0.44">
<path opacity="0.44" d="M21.4889 47.0692C21.4889 47.3128 21.2927 47.51 21.0517 47.51H13.6583C13.4174 47.51 13.2212 47.3128 13.2212 47.0692V43.9373C13.2212 43.6937 13.4174 43.495 13.6583 43.495H21.0517C21.2927 43.495 21.4889 43.6936 21.4889 43.9373V47.0692Z" fill="#F1F2F2"/>
</g>
<g opacity="0.44">
<path opacity="0.44" d="M12.6743 47.0692C12.6743 47.3128 12.4782 47.51 12.2372 47.51H4.84386C4.60272 47.51 4.40674 47.3128 4.40674 47.0692V43.9373C4.40674 43.6937 4.60282 43.495 4.84386 43.495H12.2372C12.4783 43.495 12.6743 43.6936 12.6743 43.9373V47.0692Z" fill="#F1F2F2"/>
</g>
<g opacity="0.44">
<path opacity="0.44" d="M92.0043 37.9621C92.0043 38.2057 91.8088 38.4044 91.5671 38.4044H84.1729C83.9325 38.4044 83.7372 38.2058 83.7372 37.9621V34.8301C83.7372 34.5866 83.9326 34.3894 84.1729 34.3894H91.567C91.8087 34.3894 92.0042 34.5866 92.0042 34.8301V37.9621H92.0043Z" fill="#F1F2F2"/>
</g>
<g opacity="0.44">
<path opacity="0.44" d="M83.1889 37.9621C83.1889 38.2057 82.9935 38.4044 82.7518 38.4044H75.3592C75.1174 38.4044 74.922 38.2058 74.922 37.9621V34.8301C74.922 34.5866 75.1174 34.3894 75.3592 34.3894H82.7518C82.9936 34.3894 83.1889 34.5866 83.1889 34.8301V37.9621Z" fill="#F1F2F2"/>
</g>
<g opacity="0.44">
<path opacity="0.44" d="M74.3752 37.9621C74.3752 38.2057 74.1798 38.4044 73.9381 38.4044H66.5447C66.3037 38.4044 66.1074 38.2058 66.1074 37.9621V34.8301C66.1074 34.5866 66.3036 34.3894 66.5447 34.3894H73.9381C74.1799 34.3894 74.3752 34.5866 74.3752 34.8301V37.9621Z" fill="#F1F2F2"/>
</g>
<g opacity="0.44">
<path opacity="0.44" d="M65.5607 37.9621C65.5607 38.2057 65.3645 38.4044 65.1236 38.4044H57.7301C57.489 38.4044 57.293 38.2058 57.293 37.9621V34.8301C57.293 34.5866 57.4891 34.3894 57.7301 34.3894H65.1236C65.3645 34.3894 65.5607 34.5866 65.5607 34.8301V37.9621Z" fill="#F1F2F2"/>
</g>
<g opacity="0.44">
<path opacity="0.44" d="M56.7462 37.9621C56.7462 38.2057 56.5508 38.4044 56.3091 38.4044H48.9158C48.6747 38.4044 48.4787 38.2058 48.4787 37.9621V34.8301C48.4787 34.5866 48.6748 34.3894 48.9158 34.3894H56.3091C56.5509 34.3894 56.7462 34.5866 56.7462 34.8301V37.9621Z" fill="#F1F2F2"/>
</g>
<g opacity="0.44">
<path opacity="0.44" d="M47.9317 37.9621C47.9317 38.2057 47.7363 38.4044 47.4946 38.4044H40.1018C39.8602 38.4044 39.6647 38.2058 39.6647 37.9621V34.8301C39.6647 34.5866 39.8602 34.3894 40.1018 34.3894H47.4946C47.7364 34.3894 47.9317 34.5866 47.9317 34.8301V37.9621Z" fill="#F1F2F2"/>
</g>
<g opacity="0.44">
<path opacity="0.44" d="M39.1172 37.9621C39.1172 38.2057 38.9218 38.4044 38.6799 38.4044H31.2874C31.0456 38.4044 30.8503 38.2058 30.8503 37.9621V34.8301C30.8503 34.5866 31.0457 34.3894 31.2874 34.3894H38.6799C38.9218 34.3894 39.1172 34.5866 39.1172 34.8301V37.9621Z" fill="#F1F2F2"/>
</g>
<g opacity="0.44">
<path opacity="0.44" d="M30.3033 37.9621C30.3033 38.2057 30.1073 38.4044 29.8655 38.4044H22.4729C22.231 38.4044 22.0358 38.2058 22.0358 37.9621V34.8301C22.0358 34.5866 22.2311 34.3894 22.4729 34.3894H29.8655C30.1074 34.3894 30.3033 34.5866 30.3033 34.8301V37.9621Z" fill="#F1F2F2"/>
</g>
<g opacity="0.44">
<path opacity="0.44" d="M21.4889 37.9621C21.4889 38.2057 21.2927 38.4044 21.0517 38.4044H13.6583C13.4174 38.4044 13.2212 38.2058 13.2212 37.9621V34.8301C13.2212 34.5866 13.4174 34.3894 13.6583 34.3894H21.0517C21.2927 34.3894 21.4889 34.5866 21.4889 34.8301V37.9621Z" fill="#F1F2F2"/>
</g>
<g opacity="0.44">
<path opacity="0.44" d="M12.6743 37.9621C12.6743 38.2057 12.4782 38.4044 12.2372 38.4044H4.84386C4.60272 38.4044 4.40674 38.2058 4.40674 37.9621V34.8301C4.40674 34.5866 4.60282 34.3894 4.84386 34.3894H12.2372C12.4783 34.3894 12.6743 34.5866 12.6743 34.8301V37.9621Z" fill="#F1F2F2"/>
</g>
<g opacity="0.44">
<path opacity="0.44" d="M92.0043 28.8565C92.0043 29.1001 91.8088 29.2972 91.5671 29.2972H84.1729C83.9325 29.2972 83.7372 29.1001 83.7372 28.8565V25.7246C83.7372 25.4809 83.9326 25.2825 84.1729 25.2825H91.567C91.8087 25.2825 92.0042 25.4809 92.0042 25.7246V28.8565H92.0043Z" fill="#F1F2F2"/>
</g>
<g opacity="0.44">
<path opacity="0.44" d="M83.1889 28.8565C83.1889 29.1001 82.9935 29.2972 82.7518 29.2972H75.3592C75.1174 29.2972 74.922 29.1001 74.922 28.8565V25.7246C74.922 25.4809 75.1174 25.2825 75.3592 25.2825H82.7518C82.9936 25.2825 83.1889 25.4809 83.1889 25.7246V28.8565Z" fill="#F1F2F2"/>
</g>
<g opacity="0.44">
<path opacity="0.44" d="M74.3752 28.8565C74.3752 29.1001 74.1798 29.2972 73.9381 29.2972H66.5447C66.3037 29.2972 66.1074 29.1001 66.1074 28.8565V25.7246C66.1074 25.4809 66.3036 25.2825 66.5447 25.2825H73.9381C74.1799 25.2825 74.3752 25.4809 74.3752 25.7246V28.8565Z" fill="#F1F2F2"/>
</g>
<g opacity="0.44">
<path opacity="0.44" d="M65.5607 28.8565C65.5607 29.1001 65.3645 29.2972 65.1236 29.2972H57.7301C57.489 29.2972 57.293 29.1001 57.293 28.8565V25.7246C57.293 25.4809 57.4891 25.2825 57.7301 25.2825H65.1236C65.3645 25.2825 65.5607 25.4809 65.5607 25.7246V28.8565Z" fill="#F1F2F2"/>
</g>
<g opacity="0.44">
<path opacity="0.44" d="M56.7462 28.8565C56.7462 29.1001 56.5508 29.2972 56.3091 29.2972H48.9158C48.6747 29.2972 48.4787 29.1001 48.4787 28.8565V25.7246C48.4787 25.4809 48.6748 25.2825 48.9158 25.2825H56.3091C56.5509 25.2825 56.7462 25.4809 56.7462 25.7246V28.8565Z" fill="#F1F2F2"/>
</g>
<g opacity="0.44">
<path opacity="0.44" d="M47.9317 28.8565C47.9317 29.1001 47.7363 29.2972 47.4946 29.2972H40.1018C39.8602 29.2972 39.6647 29.1001 39.6647 28.8565V25.7246C39.6647 25.4809 39.8602 25.2825 40.1018 25.2825H47.4946C47.7364 25.2825 47.9317 25.4809 47.9317 25.7246V28.8565Z" fill="#F1F2F2"/>
</g>
<g opacity="0.44">
<path opacity="0.44" d="M39.1172 28.8565C39.1172 29.1001 38.9218 29.2972 38.6799 29.2972H31.2874C31.0456 29.2972 30.8503 29.1001 30.8503 28.8565V25.7246C30.8503 25.4809 31.0457 25.2825 31.2874 25.2825H38.6799C38.9218 25.2825 39.1172 25.4809 39.1172 25.7246V28.8565Z" fill="#F1F2F2"/>
</g>
<g opacity="0.44">
<path opacity="0.44" d="M30.3033 28.8565C30.3033 29.1001 30.1073 29.2972 29.8655 29.2972H22.4729C22.231 29.2972 22.0358 29.1001 22.0358 28.8565V25.7246C22.0358 25.4809 22.2311 25.2825 22.4729 25.2825H29.8655C30.1074 25.2825 30.3033 25.4809 30.3033 25.7246V28.8565Z" fill="#F1F2F2"/>
</g>
<g opacity="0.44">
<path opacity="0.44" d="M21.4889 28.8565C21.4889 29.1001 21.2927 29.2972 21.0517 29.2972H13.6583C13.4174 29.2972 13.2212 29.1001 13.2212 28.8565V25.7246C13.2212 25.4809 13.4174 25.2825 13.6583 25.2825H21.0517C21.2927 25.2825 21.4889 25.4809 21.4889 25.7246V28.8565Z" fill="#F1F2F2"/>
</g>
<g opacity="0.44">
<path opacity="0.44" d="M12.6743 28.8565C12.6743 29.1001 12.4782 29.2972 12.2372 29.2972H4.84386C4.60272 29.2972 4.40674 29.1001 4.40674 28.8565V25.7246C4.40674 25.4809 4.60282 25.2825 4.84386 25.2825H12.2372C12.4783 25.2825 12.6743 25.4809 12.6743 25.7246V28.8565Z" fill="#F1F2F2"/>
</g>
<g opacity="0.44">
<path opacity="0.44" d="M92.0043 19.7493C92.0043 19.993 91.8088 20.1916 91.5671 20.1916H84.1729C83.9325 20.1916 83.7372 19.9931 83.7372 19.7493V16.6175C83.7372 16.3738 83.9326 16.1767 84.1729 16.1767H91.567C91.8087 16.1767 92.0042 16.3738 92.0042 16.6175V19.7493H92.0043Z" fill="#F1F2F2"/>
</g>
<g opacity="0.44">
<path opacity="0.44" d="M83.1889 19.7493C83.1889 19.993 82.9935 20.1916 82.7518 20.1916H75.3592C75.1174 20.1916 74.922 19.9931 74.922 19.7493V16.6175C74.922 16.3738 75.1174 16.1767 75.3592 16.1767H82.7518C82.9936 16.1767 83.1889 16.3738 83.1889 16.6175V19.7493Z" fill="#F1F2F2"/>
</g>
<g opacity="0.44">
<path opacity="0.44" d="M74.3752 19.7493C74.3752 19.993 74.1798 20.1916 73.9381 20.1916H66.5447C66.3037 20.1916 66.1074 19.9931 66.1074 19.7493V16.6175C66.1074 16.3738 66.3036 16.1767 66.5447 16.1767H73.9381C74.1799 16.1767 74.3752 16.3738 74.3752 16.6175V19.7493Z" fill="#F1F2F2"/>
</g>
<g opacity="0.44">
<path opacity="0.44" d="M65.5607 19.7493C65.5607 19.993 65.3645 20.1916 65.1236 20.1916H57.7301C57.489 20.1916 57.293 19.9931 57.293 19.7493V16.6175C57.293 16.3738 57.4891 16.1767 57.7301 16.1767H65.1236C65.3645 16.1767 65.5607 16.3738 65.5607 16.6175V19.7493Z" fill="#F1F2F2"/>
</g>
<g opacity="0.44">
<path opacity="0.44" d="M56.7462 19.7493C56.7462 19.993 56.5508 20.1916 56.3091 20.1916H48.9158C48.6747 20.1916 48.4787 19.9931 48.4787 19.7493V16.6175C48.4787 16.3738 48.6748 16.1767 48.9158 16.1767H56.3091C56.5509 16.1767 56.7462 16.3738 56.7462 16.6175V19.7493Z" fill="#F1F2F2"/>
</g>
<g opacity="0.44">
<path opacity="0.44" d="M47.9317 19.7493C47.9317 19.993 47.7363 20.1916 47.4946 20.1916H40.1018C39.8602 20.1916 39.6647 19.9931 39.6647 19.7493V16.6175C39.6647 16.3738 39.8602 16.1767 40.1018 16.1767H47.4946C47.7364 16.1767 47.9317 16.3738 47.9317 16.6175V19.7493Z" fill="#F1F2F2"/>
</g>
<g opacity="0.44">
<path opacity="0.44" d="M39.1172 19.7493C39.1172 19.993 38.9218 20.1916 38.6799 20.1916H31.2874C31.0456 20.1916 30.8503 19.9931 30.8503 19.7493V16.6175C30.8503 16.3738 31.0457 16.1767 31.2874 16.1767H38.6799C38.9218 16.1767 39.1172 16.3738 39.1172 16.6175V19.7493Z" fill="#F1F2F2"/>
</g>
<g opacity="0.44">
<path opacity="0.44" d="M30.3033 19.7493C30.3033 19.993 30.1073 20.1916 29.8655 20.1916H22.4729C22.231 20.1916 22.0358 19.9931 22.0358 19.7493V16.6175C22.0358 16.3738 22.2311 16.1767 22.4729 16.1767H29.8655C30.1074 16.1767 30.3033 16.3738 30.3033 16.6175V19.7493Z" fill="#F1F2F2"/>
</g>
<g opacity="0.44">
<path opacity="0.44" d="M21.4889 19.7493C21.4889 19.993 21.2927 20.1916 21.0517 20.1916H13.6583C13.4174 20.1916 13.2212 19.9931 13.2212 19.7493V16.6175C13.2212 16.3738 13.4174 16.1767 13.6583 16.1767H21.0517C21.2927 16.1767 21.4889 16.3738 21.4889 16.6175V19.7493Z" fill="#F1F2F2"/>
</g>
<g opacity="0.44">
<path opacity="0.44" d="M12.6743 19.7493C12.6743 19.993 12.4782 20.1916 12.2372 20.1916H4.84386C4.60272 20.1916 4.40674 19.9931 4.40674 19.7493V16.6175C4.40674 16.3738 4.60282 16.1767 4.84386 16.1767H12.2372C12.4783 16.1767 12.6743 16.3738 12.6743 16.6175V19.7493Z" fill="#F1F2F2"/>
</g>
<g opacity="0.44">
<path opacity="0.44" d="M92.0043 10.6438C92.0043 10.8874 91.8088 11.0845 91.5671 11.0845H84.1729C83.9325 11.0845 83.7372 10.8874 83.7372 10.6438V7.51183C83.7372 7.26825 83.9326 7.07042 84.1729 7.07042H91.567C91.8087 7.07042 92.0042 7.26825 92.0042 7.51183V10.6438H92.0043Z" fill="#F1F2F2"/>
</g>
<g opacity="0.44">
<path opacity="0.44" d="M83.1889 10.6438C83.1889 10.8874 82.9935 11.0845 82.7518 11.0845H75.3592C75.1174 11.0845 74.922 10.8874 74.922 10.6438V7.51183C74.922 7.26825 75.1174 7.07042 75.3592 7.07042H82.7518C82.9936 7.07042 83.1889 7.26825 83.1889 7.51183V10.6438Z" fill="#F1F2F2"/>
</g>
<g opacity="0.44">
<path opacity="0.44" d="M74.3752 10.6438C74.3752 10.8874 74.1798 11.0845 73.9381 11.0845H66.5447C66.3037 11.0845 66.1074 10.8874 66.1074 10.6438V7.51183C66.1074 7.26825 66.3036 7.07042 66.5447 7.07042H73.9381C74.1799 7.07042 74.3752 7.26825 74.3752 7.51183V10.6438Z" fill="#F1F2F2"/>
</g>
<g opacity="0.44">
<path opacity="0.44" d="M65.5607 10.6438C65.5607 10.8874 65.3645 11.0845 65.1236 11.0845H57.7301C57.489 11.0845 57.293 10.8874 57.293 10.6438V7.51183C57.293 7.26825 57.4891 7.07042 57.7301 7.07042H65.1236C65.3645 7.07042 65.5607 7.26825 65.5607 7.51183V10.6438Z" fill="#F1F2F2"/>
</g>
<g opacity="0.44">
<path opacity="0.44" d="M56.7462 10.6438C56.7462 10.8874 56.5508 11.0845 56.3091 11.0845H48.9158C48.6747 11.0845 48.4787 10.8874 48.4787 10.6438V7.51183C48.4787 7.26825 48.6748 7.07042 48.9158 7.07042H56.3091C56.5509 7.07042 56.7462 7.26825 56.7462 7.51183V10.6438Z" fill="#F1F2F2"/>
</g>
<g opacity="0.44">
<path opacity="0.44" d="M47.9317 10.6438C47.9317 10.8874 47.7363 11.0845 47.4946 11.0845H40.1018C39.8602 11.0845 39.6647 10.8874 39.6647 10.6438V7.51183C39.6647 7.26825 39.8602 7.07042 40.1018 7.07042H47.4946C47.7364 7.07042 47.9317 7.26825 47.9317 7.51183V10.6438Z" fill="#F1F2F2"/>
</g>
<g opacity="0.44">
<path opacity="0.44" d="M39.1172 10.6438C39.1172 10.8874 38.9218 11.0845 38.6799 11.0845H31.2874C31.0456 11.0845 30.8503 10.8874 30.8503 10.6438V7.51183C30.8503 7.26825 31.0457 7.07042 31.2874 7.07042H38.6799C38.9218 7.07042 39.1172 7.26825 39.1172 7.51183V10.6438Z" fill="#F1F2F2"/>
</g>
<g opacity="0.44">
<path opacity="0.44" d="M30.3033 10.6438C30.3033 10.8874 30.1073 11.0845 29.8655 11.0845H22.4729C22.231 11.0845 22.0358 10.8874 22.0358 10.6438V7.51183C22.0358 7.26825 22.2311 7.07042 22.4729 7.07042H29.8655C30.1074 7.07042 30.3033 7.26825 30.3033 7.51183V10.6438Z" fill="#F1F2F2"/>
</g>
<g opacity="0.44">
<path opacity="0.44" d="M21.4889 10.6438C21.4889 10.8874 21.2927 11.0845 21.0517 11.0845H13.6583C13.4174 11.0845 13.2212 10.8874 13.2212 10.6438V7.51183C13.2212 7.26825 13.4174 7.07042 13.6583 7.07042H21.0517C21.2927 7.07042 21.4889 7.26825 21.4889 7.51183V10.6438Z" fill="#F1F2F2"/>
</g>
<g opacity="0.44">
<path opacity="0.44" d="M12.6743 10.6438C12.6743 10.8874 12.4782 11.0845 12.2372 11.0845H4.84386C4.60272 11.0845 4.40674 10.8874 4.40674 10.6438V7.51183C4.40674 7.26825 4.60282 7.07042 4.84386 7.07042H12.2372C12.4783 7.07042 12.6743 7.26825 12.6743 7.51183V10.6438Z" fill="#F1F2F2"/>
</g>
</g>
</g>
<path d="M42.4483 21.8285C41.901 22.4891 41.9503 23.4528 41.9567 23.5578C41.9951 24.1825 42.2546 24.6554 42.4406 24.9429C44.26 27.7561 47.1054 29.3361 47.1055 29.3361C48.2159 30.2533 49.4288 31.1924 50.7477 32.1312C52.4123 33.3162 54.0256 34.3443 55.5499 35.2355C55.8312 33.7021 56.1125 32.1687 56.3939 30.6353C54.0865 28.7452 52.2172 27.1984 50.7872 26.0644C49.9764 25.4215 49.08 24.6857 48.2211 23.4377C47.6781 22.6488 47.8185 22.599 47.4706 22.2296C46.2128 20.894 43.4764 20.5875 42.4483 21.8285Z" fill="#AD4328"/>
<path opacity="0.12" d="M42.4483 21.8285C41.901 22.4891 41.9503 23.4528 41.9567 23.5578C41.9951 24.1825 42.2546 24.6554 42.4406 24.9429C44.26 27.7561 47.1054 29.3361 47.1055 29.3361C48.2159 30.2533 49.4288 31.1924 50.7477 32.1312C52.4123 33.3162 54.0256 34.3443 55.5499 35.2355C55.8312 33.7021 56.1125 32.1687 56.3939 30.6353C54.0865 28.7452 52.2172 27.1984 50.7872 26.0644C49.9764 25.4215 49.08 24.6857 48.2211 23.4377C47.6781 22.6488 47.8185 22.599 47.4706 22.2296C46.2128 20.894 43.4764 20.5875 42.4483 21.8285Z" fill="black"/>
<path d="M35.0147 8.99104C36.3684 8.99104 37.4659 7.89165 37.4659 6.53548C37.4659 5.17931 36.3684 4.07991 35.0147 4.07991C33.661 4.07991 32.5635 5.17931 32.5635 6.53548C32.5635 7.89165 33.661 8.99104 35.0147 8.99104Z" fill="#0B4870"/>
<path d="M37.4658 8.14114C38.8195 8.14114 39.917 7.04175 39.917 5.68558C39.917 4.32941 38.8195 3.23001 37.4658 3.23001C36.1121 3.23001 35.0146 4.32941 35.0146 5.68558C35.0146 7.04175 36.1121 8.14114 37.4658 8.14114Z" fill="#0B4870"/>
<path d="M39.9171 9.5578C41.2708 9.5578 42.3682 8.45841 42.3682 7.10223C42.3682 5.74606 41.2708 4.64667 39.9171 4.64667C38.5634 4.64667 37.4659 5.74606 37.4659 7.10223C37.4659 8.45841 38.5634 9.5578 39.9171 9.5578Z" fill="#0B4870"/>
<path d="M42.3682 11.4466C43.7219 11.4466 44.8193 10.3472 44.8193 8.99105C44.8193 7.63488 43.7219 6.53548 42.3682 6.53548C41.0144 6.53548 39.917 7.63488 39.917 8.99105C39.917 10.3472 41.0144 11.4466 42.3682 11.4466Z" fill="#0B4870"/>
<path d="M44.1594 14.4689C45.5132 14.4689 46.6106 13.3695 46.6106 12.0134C46.6106 10.6572 45.5132 9.5578 44.1594 9.5578C42.8057 9.5578 41.7083 10.6572 41.7083 12.0134C41.7083 13.3695 42.8057 14.4689 44.1594 14.4689Z" fill="#0B4870"/>
<path d="M43.4994 16.3578C44.8532 16.3578 45.9506 15.2584 45.9506 13.9022C45.9506 12.546 44.8532 11.4466 43.4994 11.4466C42.1457 11.4466 41.0483 12.546 41.0483 13.9022C41.0483 15.2584 42.1457 16.3578 43.4994 16.3578Z" fill="#0B4870"/>
<path d="M42.3682 18.8133C43.7219 18.8133 44.8193 17.7139 44.8193 16.3578C44.8193 15.0016 43.7219 13.9022 42.3682 13.9022C41.0144 13.9022 39.917 15.0016 39.917 16.3578C39.917 17.7139 41.0144 18.8133 42.3682 18.8133Z" fill="#0B4870"/>
<path d="M39.9171 20.6107C41.2708 20.6107 42.3682 19.5113 42.3682 18.1551C42.3682 16.7989 41.2708 15.6996 39.9171 15.6996C38.5634 15.6996 37.4659 16.7989 37.4659 18.1551C37.4659 19.5113 38.5634 20.6107 39.9171 20.6107Z" fill="#0B4870"/>
<path d="M38.1258 21.2689C39.4796 21.2689 40.577 20.1695 40.577 18.8133C40.577 17.4571 39.4796 16.3577 38.1258 16.3577C36.7721 16.3577 35.6747 17.4571 35.6747 18.8133C35.6747 20.1695 36.7721 21.2689 38.1258 21.2689Z" fill="#0B4870"/>
<path d="M36.9003 21.2689C38.254 21.2689 39.3515 20.1695 39.3515 18.8133C39.3515 17.4571 38.254 16.3577 36.9003 16.3577C35.5466 16.3577 34.4492 17.4571 34.4492 18.8133C34.4492 20.1695 35.5466 21.2689 36.9003 21.2689Z" fill="#0B4870"/>
<path d="M37.7487 18.8133C40.9248 18.8133 43.4995 16.234 43.4995 13.0522C43.4995 9.87038 40.9248 7.29102 37.7487 7.29102C34.5726 7.29102 31.9979 9.87038 31.9979 13.0522C31.9979 16.234 34.5726 18.8133 37.7487 18.8133Z" fill="#0B4870"/>
<path d="M32.5636 11.4466C33.9174 11.4466 35.0148 10.3472 35.0148 8.99105C35.0148 7.63488 33.9174 6.53548 32.5636 6.53548C31.2099 6.53548 30.1125 7.63488 30.1125 8.99105C30.1125 10.3472 31.2099 11.4466 32.5636 11.4466Z" fill="#0B4870"/>
<path d="M31.4323 13.9022C32.786 13.9022 33.8835 12.8028 33.8835 11.4466C33.8835 10.0904 32.786 8.99105 31.4323 8.99105C30.0786 8.99105 28.9811 10.0904 28.9811 11.4466C28.9811 12.8028 30.0786 13.9022 31.4323 13.9022Z" fill="#0B4870"/>
<path d="M31.0552 16.3578C32.409 16.3578 33.5064 15.2584 33.5064 13.9022C33.5064 12.546 32.409 11.4466 31.0552 11.4466C29.7015 11.4466 28.6041 12.546 28.6041 13.9022C28.6041 15.2584 29.7015 16.3578 31.0552 16.3578Z" fill="#0B4870"/>
<path d="M31.4323 19.5689C32.786 19.5689 33.8835 18.4695 33.8835 17.1133C33.8835 15.7571 32.786 14.6577 31.4323 14.6577C30.0786 14.6577 28.9811 15.7571 28.9811 17.1133C28.9811 18.4695 30.0786 19.5689 31.4323 19.5689Z" fill="#0B4870"/>
<path d="M33.5063 21.2689C34.8601 21.2689 35.9575 20.1695 35.9575 18.8133C35.9575 17.4571 34.8601 16.3577 33.5063 16.3577C32.1526 16.3577 31.0552 17.4571 31.0552 18.8133C31.0552 20.1695 32.1526 21.2689 33.5063 21.2689Z" fill="#0B4870"/>
<path d="M35.7473 17.7356C37.1365 20.5323 41.1363 19.9158 41.1363 19.9158L35.7473 17.7356Z" fill="#EFB68F"/>
<path d="M36.593 22.3947C36.593 22.3947 32.0309 25.0026 31.1469 25.8382C31.1469 25.8382 39.1498 31.589 47.4877 22.4416C46.6214 22.1108 46.4794 22.1187 45.3412 21.8605C43.8724 21.5275 41.8059 21.095 40.6807 21.0446L36.593 22.3947Z" fill="#EFB68F"/>
<path d="M40.8946 19.9432L40.9733 22.0305L36.6942 22.6792L35.014 17.5375L36.0318 17.3419L40.8946 19.9432Z" fill="#EFB68F"/>
<path d="M33.7077 16.5155C33.9766 17.0074 34.4448 17.3737 35.0139 17.5376C36.6262 17.9871 36.6095 16.0486 35.8106 15.3188C34.8599 14.4485 32.9892 15.1938 33.7077 16.5155Z" fill="#EFB68F"/>
<path d="M35.8479 22.9285C36.7981 24.2826 38.5112 24.8278 39.9722 24.284C41.2243 23.8179 42.105 22.621 42.2202 21.2302C42.7362 21.0813 43.7064 20.8741 44.9032 21.066C46.1104 21.2595 46.9733 21.7668 47.417 22.0715L51.3791 45.5261L37.4298 47.7023L31.0237 25.9452C31.5477 25.5052 32.1299 24.8221 32.8588 24.3715C33.9473 23.6985 34.9779 23.2423 35.8479 22.9285Z" fill="#AD4328"/>
<path d="M54.9977 51.6346C54.1957 53.1652 51.6887 53.7432 51.0463 54.0273C50.848 54.115 50.1885 54.2563 48.8745 54.5595C47.8623 54.7931 46.8051 55.0168 45.6883 55.2292C45.0425 55.352 44.4072 55.4653 43.7829 55.5697C42.1843 55.837 42.2637 55.562 41.5813 55.6087C40.6231 55.6744 40.6582 56.0144 38.4729 54.7347C36.8135 52.7984 37.0674 47.7446 36.6908 45.1924L50.8451 42.3649C52.0196 44.5615 52.9861 48.7796 54.9977 51.6346Z" fill="#0B4870"/>
<path d="M54.1656 86.189L56.1414 79.1065L53.3572 78.2523L51.379 85.3246L54.1656 86.189Z" fill="#AD4328"/>
<path d="M51.026 85.4332L50.5131 87.7097H59.5427V87.6433C59.5427 87.119 59.2417 86.6414 58.7692 86.416L54.5786 84.7408C54.4278 84.6689 54.2342 84.672 54.1194 84.7934C53.5778 85.366 52.983 86.2986 51.3297 85.2867C51.2097 85.2134 51.0527 85.295 51.026 85.4332Z" fill="#0B4870"/>
<path d="M59.5427 87.7097H50.5131V88.3071H59.5427V87.7097Z" fill="#AD4328"/>
<path d="M58.081 62.5662C59.5466 61.6136 59.9814 59.6608 59.0586 58.1747L53.3714 49.0156C52.298 47.2869 49.9184 46.5882 48.0833 47.4629C47.6597 47.8744 46.9585 48.6634 46.4962 49.8626C45.9766 51.2108 46.0217 52.3955 46.0862 52.9983C48.6976 55.9937 51.3092 58.9891 53.9207 61.9845C54.97 63.1881 56.7428 63.436 58.081 62.5662Z" fill="#0B4870"/>
<path d="M48.4995 87.7097L56.1414 85.3656L59.6275 59.4813C59.413 57.7199 57.8051 56.4724 56.0492 56.705C54.2678 56.9408 53.034 58.6055 53.3236 60.3819L48.4995 87.7097Z" fill="#0B4870"/>
<path d="M24.5459 85.5143L28.1577 79.1122L30.7272 80.4844L27.1242 86.8811L24.5459 85.5143Z" fill="#AD4328"/>
<path d="M38.7556 65.3822L33.3918 63.1809L38.4376 49.663C39.1609 47.7771 41.2885 46.853 43.1569 47.6135C43.2611 47.6558 43.6268 47.8109 44.0348 48.1349C44.0348 48.1349 44.8105 48.7566 45.1671 49.6706C45.5616 50.6817 45.3136 51.7305 45.0361 52.5463C44.36 54.534 42.1027 59.2722 38.7556 65.3822Z" fill="#0B4870"/>
<path d="M31.0552 89.3489L23.4042 84.6931L35.144 58.5394C35.7943 56.889 37.6638 56.0871 39.3047 56.7549C40.9694 57.4324 41.7452 59.3545 41.0186 61.0008L31.0552 89.3489Z" fill="#0B4870"/>
<path d="M28.4992 87.0324L28.2163 89.3489L19.7148 86.3005L19.7371 86.238C19.9135 85.7443 20.3576 85.3963 20.8782 85.3436L25.3872 85.1812C25.5533 85.1643 25.7347 85.2326 25.802 85.3857C26.1192 86.1077 26.3655 87.1866 28.2625 86.792C28.4001 86.7633 28.5205 86.8933 28.4992 87.0324Z" fill="#0B4870"/>
<path d="M19.515 86.8634L28.0164 89.9119L28.2174 89.3494L19.716 86.3009L19.515 86.8634Z" fill="#AD4328"/>
<path d="M40.8946 19.9433C40.7767 20.2116 40.5859 20.5069 40.268 20.6614C39.2697 21.1466 37.7807 19.8723 37.1821 19.3601C36.5466 18.8163 36.0831 18.2404 35.7472 17.7357C36.0486 18.0641 36.4294 18.4152 40.8946 19.9433Z" fill="#E0A882"/>
<path d="M33.8075 10.9499C35.0231 8.69661 38.4918 7.66651 40.5412 8.86455C41.4711 9.40819 41.8581 10.2641 42.429 11.5269C42.6036 11.9129 43.8667 14.8137 42.8928 17.8965C42.5158 19.0896 42.0651 19.4828 41.7348 19.6746C41.0689 20.0612 40.3397 19.939 39.6695 19.8414C38.3114 19.6435 37.3778 18.9872 37.0348 18.7401C35.3958 17.5598 32.2086 13.9135 33.8075 10.9499Z" fill="#EFB68F"/>
<path d="M33.6894 15.6511C34.0154 15.6511 34.2796 15.3865 34.2796 15.0599C34.2796 14.7334 34.0154 14.4688 33.6894 14.4688C33.3635 14.4688 33.0993 14.7334 33.0993 15.0599C33.0993 15.3865 33.3635 15.6511 33.6894 15.6511Z" fill="#0B4870"/>
<path d="M34.3015 15.84C34.5459 15.84 34.744 15.6415 34.744 15.3966C34.744 15.1518 34.5459 14.9533 34.3015 14.9533C34.0571 14.9533 33.859 15.1518 33.859 15.3966C33.859 15.6415 34.0571 15.84 34.3015 15.84Z" fill="#0B4870"/>
<path d="M34.7442 16.1356C34.9071 16.1356 35.0392 16.0033 35.0392 15.84C35.0392 15.6768 34.9071 15.5445 34.7442 15.5445C34.5812 15.5445 34.4492 15.6768 34.4492 15.84C34.4492 16.0033 34.5812 16.1356 34.7442 16.1356Z" fill="#0B4870"/>
<path d="M33.5064 14.811C33.8708 14.811 34.1663 14.515 34.1663 14.1499C34.1663 13.7848 33.8708 13.4888 33.5064 13.4888C33.1419 13.4888 32.8464 13.7848 32.8464 14.1499C32.8464 14.515 33.1419 14.811 33.5064 14.811Z" fill="#0B4870"/>
<path d="M33.3709 13.7133C33.7353 13.7133 34.0308 13.4173 34.0308 13.0521C34.0308 12.687 33.7353 12.391 33.3709 12.391C33.0064 12.391 32.7109 12.687 32.7109 13.0521C32.7109 13.4173 33.0064 13.7133 33.3709 13.7133Z" fill="#0B4870"/>
<path d="M33.5473 12.6744C33.9117 12.6744 34.2072 12.3784 34.2072 12.0133C34.2072 11.6482 33.9117 11.3522 33.5473 11.3522C33.1828 11.3522 32.8873 11.6482 32.8873 12.0133C32.8873 12.3784 33.1828 12.6744 33.5473 12.6744Z" fill="#0B4870"/>
<path d="M33.8834 11.805C34.2479 11.805 34.5434 11.509 34.5434 11.1439C34.5434 10.7788 34.2479 10.4828 33.8834 10.4828C33.519 10.4828 33.2235 10.7788 33.2235 11.1439C33.2235 11.509 33.519 11.805 33.8834 11.805Z" fill="#0B4870"/>
<path d="M34.4491 10.88C34.8135 10.88 35.109 10.584 35.109 10.2189C35.109 9.85374 34.8135 9.55775 34.4491 9.55775C34.0846 9.55775 33.7891 9.85374 33.7891 10.2189C33.7891 10.584 34.0846 10.88 34.4491 10.88Z" fill="#0B4870"/>
<path d="M35.1091 10.2189C35.4735 10.2189 35.769 9.92287 35.769 9.55775C35.769 9.19262 35.4735 8.89663 35.1091 8.89663C34.7446 8.89663 34.4492 9.19262 34.4492 9.55775C34.4492 9.92287 34.7446 10.2189 35.1091 10.2189Z" fill="#0B4870"/>
<path d="M35.8547 9.65212C36.2191 9.65212 36.5146 9.35612 36.5146 8.991C36.5146 8.62587 36.2191 8.32988 35.8547 8.32988C35.4902 8.32988 35.1948 8.62587 35.1948 8.991C35.1948 9.35612 35.4902 9.65212 35.8547 9.65212Z" fill="#0B4870"/>
<path d="M36.5146 8.99099C36.879 8.99099 37.1745 8.695 37.1745 8.32987C37.1745 7.96475 36.879 7.66876 36.5146 7.66876C36.1501 7.66876 35.8546 7.96475 35.8546 8.32987C35.8546 8.695 36.1501 8.99099 36.5146 8.99099Z" fill="#0B4870"/>
<path d="M37.7487 8.80221C38.1132 8.80221 38.4086 8.50621 38.4086 8.14109C38.4086 7.77596 38.1132 7.47997 37.7487 7.47997C37.3843 7.47997 37.0888 7.77596 37.0888 8.14109C37.0888 8.50621 37.3843 8.80221 37.7487 8.80221Z" fill="#0B4870"/>
<path d="M38.7857 8.99099C39.1502 8.99099 39.4456 8.695 39.4456 8.32987C39.4456 7.96475 39.1502 7.66876 38.7857 7.66876C38.4212 7.66876 38.1258 7.96475 38.1258 8.32987C38.1258 8.695 38.4212 8.99099 38.7857 8.99099Z" fill="#0B4870"/>
<path d="M39.7268 9.2321C40.0913 9.2321 40.3867 8.93611 40.3867 8.57098C40.3867 8.20585 40.0913 7.90986 39.7268 7.90986C39.3624 7.90986 39.0669 8.20585 39.0669 8.57098C39.0669 8.93611 39.3624 9.2321 39.7268 9.2321Z" fill="#0B4870"/>
<path d="M40.7191 9.2321C41.0836 9.2321 41.379 8.93611 41.379 8.57098C41.379 8.20585 41.0836 7.90986 40.7191 7.90986C40.3546 7.90986 40.0591 8.20585 40.0591 8.57098C40.0591 8.93611 40.3546 9.2321 40.7191 9.2321Z" fill="#0B4870"/>
<path d="M41.6246 9.89322C41.9891 9.89322 42.2845 9.59722 42.2845 9.2321C42.2845 8.86698 41.9891 8.57098 41.6246 8.57098C41.2601 8.57098 40.9647 8.86698 40.9647 9.2321C40.9647 9.59722 41.2601 9.89322 41.6246 9.89322Z" fill="#0B4870"/>
<path d="M43.0267 11.8042L35.7701 14.9068H35.7681L35.4693 14.6614L42.99 11.4468L43.0267 11.8042Z" fill="#AD4328"/>
<path opacity="0.06" d="M43.0267 11.8042L35.7701 14.9068H35.7681L35.4693 14.6614L42.99 11.4468L43.0267 11.8042Z" fill="#191919"/>
<path d="M43.2581 14.0703L41.1977 15.06L40.3867 14.6576L39.9162 15.6988L37.658 16.4484L35.7701 14.9068L43.0267 11.8042L43.2581 14.0703Z" fill="#AD4328"/>
<path opacity="0.14" d="M37.6749 14.0924L37.658 16.4484L39.3174 15.8976V13.3756L37.6749 14.0924Z" fill="white"/>
<path opacity="0.14" d="M41.1978 12.5815V15.06L42.7077 14.3347V11.9524L41.1978 12.5815Z" fill="white"/>
<path d="M34.3591 15.8167L36.1819 15.2432L35.4692 14.6615L33.6893 15.3968C33.7226 15.396 33.8838 15.3958 34.0191 15.5212C34.1431 15.6361 34.3553 15.7801 34.3591 15.8167Z" fill="#AD4328"/>
<path opacity="0.15" d="M34.3591 15.8167L36.1819 15.2432L35.4692 14.6615L33.6893 15.3968C33.7226 15.396 33.8838 15.3958 34.0191 15.5212C34.1431 15.6361 34.3553 15.7801 34.3591 15.8167Z" fill="#191919"/>
<path d="M40.8141 17.5341L45.6213 19.0217L58.9158 40.4229C60.6896 43.2784 64.5614 43.9282 67.1673 41.8076L79.4441 31.8172L68.82 22.8756L62.5972 34.7729L48.3358 17.5691C47.7078 16.8116 46.7208 16.4523 45.754 16.6294L40.8141 17.5341Z" fill="#AD4328"/>
<path d="M53.8155 28.89C53.6737 29.2919 53.7593 29.522 53.7593 29.522C53.4309 29.7465 53.3824 30.1715 53.6532 30.4524L53.845 30.6513C54.0955 30.9111 54.5294 30.9522 54.8334 30.7448L54.8509 30.7329C55.0636 30.7034 56.2231 30.5222 56.8079 29.536C57.18 28.9084 57.3462 27.9094 56.9461 27.6455C56.6004 27.4176 55.8335 27.7391 55.1634 28.4997L55.4012 27.8047C55.4313 27.7165 55.3937 27.6208 55.3082 27.5684C55.2161 27.5121 55.0929 27.5203 55.0118 27.5882L54.3696 28.1259C54.1178 28.3365 53.9191 28.5962 53.8155 28.89Z" fill="#F7C6A4"/>
<path d="M53.5136 29.832L43.7434 35.3827C42.9017 35.8683 42.7369 36.9058 43.3935 37.5856C43.9868 38.1997 45.0218 38.2768 45.7161 37.7587L54.4736 30.8726L53.5136 29.832Z" fill="#F7C6A4"/>
<path d="M32.9402 31.185C34.8467 32.643 36.8391 34.6139 42.11 37.5385C42.6683 37.8483 43.7263 38.4178 44.7901 38.1534C45.2838 38.0307 45.6288 37.7657 45.8427 37.5603C45.8049 37.2687 45.7032 36.8093 45.3996 36.3075C45.0123 35.6673 44.4912 35.2799 44.1963 35.0901C41.1293 32.4686 38.0624 29.8472 34.9955 27.2257C34.0816 26.5011 32.6849 26.5806 31.944 27.3993C31.2543 28.1615 32.076 30.5239 32.9402 31.185Z" fill="#F7C6A4"/>
<path d="M44.1963 35.09C42.2369 33.5483 40.8235 32.1223 39.8911 31.0997C38.8616 29.9704 37.8052 28.6602 35.9109 26.8804C33.8801 24.9723 33.0047 24.5151 32.3202 24.7607C31.8484 24.93 31.0533 25.5752 30.6807 26.49C30.6501 26.5652 30.6287 26.624 30.6156 26.6597C29.9538 28.4768 32.1015 30.4449 32.6573 31.0728C34.8471 33.5473 42.8248 38.1854 43.7788 38.4717C43.7788 38.4717 44.6956 38.7847 46.048 37.8805C47.4004 36.9764 54.9977 33.7076 54.9977 33.7076C54.9977 33.7076 54.6408 30.8144 53.1554 30.0355L44.1963 35.09Z" fill="#AD4328"/>
<path d="M36.465 21.9781L34.696 23.4495L39.3173 25.5557L39.6944 24.3336L36.465 21.9781Z" fill="#AD4328"/>
<path d="M39.6944 24.3336L40.8946 21.058L42.2201 21.2303L41.2391 24.9448L39.6944 24.3336Z" fill="#AD4328"/>
<path opacity="0.18" d="M44.1963 35.09C42.2369 33.5483 40.8235 32.1223 39.8911 31.0997C38.8616 29.9704 37.8052 28.6602 35.9109 26.8804C33.8801 24.9723 33.0047 24.5151 32.3202 24.7607C31.8484 24.93 31.0533 25.5752 30.6807 26.49C30.6501 26.5652 30.6287 26.624 30.6156 26.6597C29.9538 28.4768 32.1015 30.4449 32.6573 31.0728C34.8471 33.5473 42.8248 38.1854 43.7788 38.4717C43.7788 38.4717 44.6956 38.7847 46.048 37.8805C47.4004 36.9764 54.9977 33.7076 54.9977 33.7076C54.9977 33.7076 54.6408 30.8144 53.1554 30.0355L44.1963 35.09Z" fill="#F9F9F9"/>
<path opacity="0.1" d="M36.465 21.9781L34.696 23.4495L39.3173 25.5557L39.6944 24.3336L36.465 21.9781Z" fill="#141414"/>
<path opacity="0.1" d="M39.6944 24.3336L40.8946 21.058L42.2201 21.2303L41.2391 24.9448L39.6944 24.3336Z" fill="#141414"/>
<path opacity="0.12" d="M68.8199 22.8757C68.8199 22.8757 69.1748 32.8828 79.444 31.8174L68.8199 22.8757Z" fill="black"/>
<path opacity="0.12" d="M49.9934 19.5688L49.1732 20.2503L50.559 21.978L51.379 21.2403L49.9934 19.5688Z" fill="black"/>
<path opacity="0.12" d="M52.5126 22.5622L51.6924 23.2437L53.0782 24.9714L53.8982 24.2337L52.5126 22.5622Z" fill="black"/>
<path opacity="0.12" d="M54.7148 25.2133L53.8947 25.8948L55.2804 27.6226L56.1005 26.8848L54.7148 25.2133Z" fill="black"/>
<path opacity="0.11" d="M60.9725 40.9059C60.9725 40.9059 64.0965 42.9227 66.6651 40.419C69.2337 37.9153 73.3296 32.9079 73.3296 32.9079L77.9115 32.4756C75.3671 34.0925 73.543 35.6841 72.323 36.872C71.8856 37.2979 69.1454 39.9898 66.0402 41.8099C65.6286 42.0511 64.8602 42.4824 63.8534 42.4358C62.4141 42.3691 61.3886 41.3673 60.9725 40.9059Z" fill="white"/>
<path d="M72.3982 28.9924C72.4327 27.5955 72.5794 26.1889 72.9764 24.8358C73.1775 24.1617 73.4449 23.5029 73.8046 22.8923C74.1643 22.2831 74.6212 21.7245 75.1736 21.2745C75.4494 21.0497 75.7469 20.8522 76.0606 20.6831C76.3754 20.5159 76.7088 20.3848 77.0503 20.2853C77.7346 20.0862 78.448 20.0244 79.1493 20.0274C79.852 20.0286 80.5484 20.084 81.2408 20.1203C81.9329 20.1564 82.6241 20.1755 83.3076 20.1133C84.6774 20.0153 85.9943 19.5061 87.1155 18.7167L87.5286 18.4097C87.6616 18.3011 87.7894 18.1859 87.9202 18.0744C87.9845 18.0173 88.052 17.9639 88.1136 17.9039L88.2963 17.7216C88.417 17.5989 88.5426 17.4809 88.6594 17.3544L88.9996 16.9648L89.1696 16.7698L89.3269 16.5641L89.6416 16.1527C89.6958 16.0854 89.7438 16.0135 89.7915 15.9415L89.9362 15.7263C90.7122 14.5807 91.3445 13.3399 91.8976 12.0675L92.2967 11.1055C92.4249 10.7827 92.5387 10.4542 92.6604 10.1288L92.8401 9.63956L93.0016 9.14368L93.3244 8.1518L93.4949 8.20326L93.181 9.20266L93.0241 9.70246L92.8487 10.1962C92.7297 10.5247 92.6186 10.8562 92.4931 11.1822L92.1013 12.1551C91.5497 13.4397 90.9154 14.6947 90.1325 15.8599L89.9864 16.0787C89.9382 16.1519 89.8897 16.2251 89.8349 16.2938L89.5164 16.7133L89.357 16.9231L89.1846 17.1226L88.839 17.5211C88.7201 17.6506 88.5921 17.772 88.4692 17.8979L88.2828 18.0851C88.2199 18.1467 88.1509 18.2019 88.0852 18.2607C87.9516 18.3756 87.8209 18.494 87.6848 18.606L87.261 18.9233C86.6838 19.3295 86.0581 19.6708 85.3953 19.9187C84.7348 20.1737 84.0329 20.3206 83.3306 20.3799C81.9198 20.5036 80.5258 20.2892 79.1488 20.2801C78.4606 20.2745 77.7726 20.333 77.1181 20.5208C76.7915 20.6147 76.4736 20.7384 76.1728 20.8967C75.8733 21.0568 75.5878 21.2448 75.3233 21.4589C74.7936 21.8873 74.3525 22.4215 74.0022 23.01C73.6517 23.5995 73.3893 24.2408 73.1885 24.9002C72.7855 26.2217 72.6247 27.6117 72.5764 28.9977L72.3982 28.9924Z" fill="#E2E2E2"/>
<path d="M73.6053 29.8968C73.6351 29.1683 73.7008 28.4396 73.8219 27.7174C73.9419 26.9955 74.1133 26.2788 74.3639 25.5848C74.6172 24.8931 74.9537 24.2242 75.4006 23.6268C75.4571 23.5526 75.5101 23.4758 75.5696 23.404L75.7563 23.1948C75.8201 23.1265 75.8778 23.0522 75.9467 22.9888L76.1531 22.7981L76.2566 22.7028C76.2903 22.6701 76.3258 22.6395 76.3643 22.6126L76.5896 22.4437C76.737 22.3269 76.8969 22.2281 77.0584 22.1319C77.7081 21.7491 78.4518 21.5327 79.1947 21.4605C79.9397 21.3847 80.6811 21.4328 81.4073 21.5031C82.1343 21.5741 82.8508 21.6723 83.5656 21.7202C84.2796 21.77 84.9929 21.7661 85.6903 21.6617C86.3872 21.5517 87.0709 21.3546 87.7216 21.0763L88.2029 20.851C88.362 20.7731 88.5128 20.6783 88.6682 20.5929L88.8998 20.4616L89.1216 20.3132L89.5649 20.0158C90.7166 19.1721 91.7107 18.1197 92.6045 16.9932L92.9342 16.5652L93.0992 16.3512C93.1536 16.2793 93.2024 16.2034 93.2544 16.1297L93.8694 15.2387C94.2483 14.6236 94.6435 14.0179 94.987 13.3803L95.2558 12.9086L95.3903 12.6727L95.5155 12.4317L96.0153 11.4665C96.1875 11.1474 96.3339 10.8155 96.4911 10.4887L96.9607 9.50684L97.0934 9.56452C96.5275 10.9047 95.9327 12.2363 95.2377 13.5191C94.9052 14.1687 94.5162 14.7871 94.1448 15.4159L93.5385 16.3295C93.4872 16.4051 93.4391 16.483 93.3852 16.5568L93.2217 16.7773L92.8945 17.2184C92.0108 18.385 90.9946 19.466 89.8114 20.3544L89.3528 20.6669L89.1226 20.8218L88.8812 20.9599C88.7191 21.0498 88.562 21.1488 88.3956 21.2309L87.8918 21.4688C87.2091 21.7632 86.4904 21.9738 85.754 22.0912C85.0151 22.1997 84.2685 22.2001 83.5364 22.1467C82.8033 22.0942 82.0813 21.9962 81.3651 21.9193C80.6496 21.8431 79.935 21.7917 79.2336 21.8567C78.534 21.9211 77.8493 22.1079 77.2388 22.4511C77.0872 22.5379 76.9359 22.6272 76.7969 22.7339L76.5836 22.8877C76.5469 22.9121 76.5133 22.9401 76.4813 22.9702L76.3831 23.0577L76.1861 23.2328C76.1201 23.2909 76.0649 23.3602 76.0036 23.4234L75.8239 23.6171C75.7665 23.6839 75.715 23.7561 75.6603 23.8253C75.2258 24.3833 74.8916 25.0202 74.6312 25.686C74.1046 27.0211 73.874 28.4648 73.75 29.9053L73.6053 29.8968Z" fill="#E2E2E2"/>
<path d="M74.8678 30.8074C74.8923 30.427 74.9199 30.046 74.9662 29.6666L75.0016 29.382L75.0455 29.0985C75.0722 28.9088 75.1104 28.7212 75.146 28.5327C75.2947 27.7806 75.511 27.037 75.826 26.328C76.1429 25.6215 76.5638 24.9495 77.114 24.3822C77.6617 23.8145 78.3469 23.3664 79.1082 23.1159C79.4877 22.9899 79.8822 22.9127 80.2771 22.8756C80.6725 22.8387 81.0678 22.8442 81.4574 22.8709C82.2377 22.926 82.9948 23.0686 83.7424 23.196C84.4897 23.3242 85.2293 23.45 85.9681 23.4871C86.3371 23.5044 86.7051 23.5101 87.0695 23.4696C87.252 23.4547 87.4352 23.445 87.6153 23.4079L87.8864 23.3626C87.9764 23.3452 88.0683 23.3381 88.1564 23.3111L88.6907 23.1768C88.7807 23.1579 88.8668 23.1247 88.9539 23.095L89.215 23.005L89.4762 22.9151C89.5632 22.885 89.6457 22.8421 89.7307 22.8063L90.2375 22.5819C90.4035 22.5001 90.5639 22.4061 90.7275 22.319C90.8888 22.2275 91.0573 22.1491 91.2098 22.0414L91.6777 21.7367C91.7553 21.6853 91.8346 21.6366 91.9109 21.5832L92.1348 21.415C93.3426 20.5344 94.4196 19.4716 95.4234 18.345C97.3993 16.0569 99.0814 13.5101 100.644 10.8944C100.296 11.5721 99.9546 12.2548 99.5904 12.9256L99.0223 13.9199L98.7371 14.4169C98.6409 14.5819 98.5357 14.7414 98.4353 14.9039L97.8207 15.8723C97.7213 16.0359 97.6063 16.1891 97.4984 16.347L97.1698 16.818L96.8402 17.2886C96.7311 17.4462 96.6068 17.5926 96.4909 17.7452C96.2536 18.0465 96.0219 18.3524 95.7798 18.6502L95.0239 19.5211C94.9014 19.6696 94.7607 19.8018 94.6268 19.9401L94.2212 20.3519L94.0182 20.5577C93.9501 20.6259 93.8755 20.6876 93.8044 20.7529L93.3727 21.1396C93.0925 21.406 92.7763 21.6323 92.473 21.8734L92.2436 22.0522C92.1651 22.1092 92.0822 22.1604 92.0015 22.2146L91.5147 22.5359C91.3561 22.6487 91.1791 22.7334 91.0101 22.8305C90.8386 22.9234 90.6706 23.0227 90.496 23.1101L89.9609 23.3514C89.8709 23.3899 89.7839 23.4352 89.6915 23.468L89.4139 23.566L89.1361 23.6636C89.0434 23.6958 88.9517 23.7313 88.8554 23.7525L88.2836 23.8992C88.1891 23.9269 88.09 23.9349 87.9933 23.953L87.7015 23.9999C87.5078 24.0378 87.3105 24.0479 87.1139 24.0627C86.7212 24.1031 86.3259 24.0948 85.9358 24.074C85.1544 24.0272 84.3901 23.8989 83.6413 23.7555C82.8925 23.6131 82.1535 23.4609 81.416 23.3955C80.6804 23.3311 79.9426 23.355 79.2489 23.5622C78.9026 23.6647 78.5699 23.8126 78.2572 23.9989L78.0301 24.1504L77.9163 24.2261C77.8777 24.2504 77.8403 24.2764 77.8061 24.3069L77.594 24.4804L77.4874 24.5669C77.4532 24.5973 77.4218 24.6308 77.3887 24.6626C76.855 25.1669 76.4283 25.7873 76.0911 26.4544C75.7483 27.1208 75.5021 27.839 75.3073 28.5706C75.2601 28.7541 75.2102 28.9372 75.1715 29.1229L75.1095 29.4009L75.0553 29.6807C74.9796 30.0534 74.9222 30.43 74.8678 30.8074Z" fill="#E2E2E2"/>
<path d="M15.6247 57.829C15.208 57.5053 14.5157 57.3718 14.0094 57.3472C13.7433 57.3343 13.7105 57.3888 13.5793 57.1953C13.4574 57.0156 13.454 56.588 13.4093 56.372C13.296 55.8249 13.1826 55.2779 13.0694 54.7308C14.2715 53.9868 15.1724 52.769 15.5333 51.4004C15.8942 50.0319 15.7112 48.5272 15.0328 47.2856C14.8166 46.8897 14.4708 46.4776 14.021 46.5026C13.6846 46.5212 13.4151 46.7839 13.2099 47.0516C12.5594 47.9006 12.2189 48.9598 12.1159 50.0251C12.013 51.0904 12.1367 52.1661 12.3422 53.2164C12.3618 53.3165 12.3818 53.4222 12.3485 53.5187C12.3124 53.6233 12.2209 53.697 12.1336 53.7645C10.8667 54.7442 9.50314 55.7316 8.83319 57.1876C8.43563 58.0517 8.31656 59.0416 8.49782 59.9756C8.68458 60.9379 9.21243 61.8586 10.0391 62.3832C10.5807 62.7269 11.218 62.8866 11.8511 62.9877C12.6525 63.1157 13.4816 63.1567 14.2691 62.9603C14.3596 63.4403 14.4367 63.923 14.4962 64.4078C14.5432 64.7904 14.5906 65.1801 14.6081 65.5677C14.6137 65.6916 14.6039 65.8124 14.6039 65.9356C14.579 66.1886 14.4804 66.4382 14.3444 66.6515C14.2838 66.7465 14.2143 66.8358 14.1371 66.9177C13.903 67.1657 13.6083 67.3494 13.2976 67.4857C13.0764 67.5826 12.838 67.6419 12.5965 67.6534C12.4751 67.6592 12.3532 67.6529 12.2332 67.6332C12.2235 67.6316 12.2122 67.6296 12.202 67.628C12.6819 67.3683 13.0118 66.866 13.0118 66.2812C13.0118 65.4325 12.325 64.7445 11.4779 64.7445C10.6308 64.7445 9.94406 65.4325 9.94406 66.2812C9.94406 66.5384 10.0132 66.7773 10.1247 66.9903L10.1158 66.9876C10.1375 67.0294 10.1633 67.0657 10.1869 67.1052C10.1964 67.1201 10.2043 67.136 10.2143 67.1506C11.0181 68.4224 12.7807 68.3527 12.7807 68.3527C12.9954 68.3627 13.2231 68.3166 13.4292 68.2637C13.8898 68.1453 14.3223 67.914 14.6559 67.5718C14.8152 67.4086 14.9505 67.2227 15.0606 67.0231C15.1509 66.8594 15.2308 66.6878 15.273 66.5048C15.3316 66.2508 15.3132 65.9912 15.2886 65.7342C15.2317 65.1379 15.1214 64.5481 15.0038 63.9591C14.976 63.8198 14.9482 63.6806 14.9204 63.5413C14.8707 63.2925 14.8211 63.0437 14.7714 62.7949C14.7689 62.7824 14.7664 62.7698 14.7639 62.7572C14.7639 62.7572 16.2397 62.326 16.5471 61.0324C16.5471 61.0323 17.1312 58.9995 15.6247 57.829ZM12.9804 48.6061C13.5825 47.793 14.8832 48.1538 14.9761 49.162C14.9761 49.162 15.1592 50.6072 13.903 52.0385C13.6988 52.3174 13.2645 52.7424 12.7581 53.1997L12.607 52.4811C12.5961 52.4283 12.5889 52.2941 12.5807 52.2408C12.4471 51.3796 12.4247 50.1441 12.5058 49.6656C12.6132 49.0312 12.9804 48.6061 12.9804 48.6061ZM10.5436 61.8378C9.91572 61.304 9.45858 60.5356 9.41912 59.7115C9.37376 58.7649 9.86826 57.8738 10.4608 57.135C11.0629 56.3843 11.7825 55.7285 12.5852 55.1987C12.723 55.7961 12.8608 56.3936 12.9985 56.9911C13.0275 57.1169 13.0556 57.2537 13.0017 57.371C12.9429 57.4989 12.805 57.566 12.6815 57.6334C11.7752 58.128 11.2197 59.1212 11.2011 60.1463C11.1941 60.5331 11.2522 60.9338 11.4579 61.2612C11.6635 61.5887 12.0402 61.8273 12.4242 61.7859C12.2591 61.8037 11.9951 61.0896 11.9584 60.968C11.8562 60.6288 11.8352 60.2633 11.8999 59.9148C12.0372 59.1757 12.5958 58.6684 13.3505 58.5978C13.6218 59.8224 13.9363 61.2767 14.1918 62.5516C14.1931 62.5579 14.1943 62.564 14.1955 62.5703C12.9606 62.9644 11.5318 62.6779 10.5436 61.8378ZM14.665 62.3401L14.5591 61.7827C14.5566 61.7672 14.5567 61.7518 14.5535 61.7363L13.8896 58.5795C14.312 58.602 15.4942 58.8085 15.8006 60.3943C15.8006 60.3944 16.0636 61.5874 14.665 62.3401Z" fill="#AD4328"/>
<path d="M72.1494 60.843V52.1404C72.1494 52.1014 72.1178 52.0698 72.079 52.0698H71.7684C71.7295 52.0698 71.698 52.1014 71.698 52.1404V60.136C71.2389 59.9072 70.5375 59.9488 69.8766 60.2931C68.9585 60.7713 68.469 61.6496 68.7832 62.2548C69.0973 62.8601 70.0962 62.9631 71.0142 62.4849C71.7805 62.0856 72.1529 61.406 72.1494 60.843Z" fill="#AD4328"/>
<path d="M86.4469 18.6851V25.2686C86.4469 25.2981 86.4707 25.322 86.5001 25.322H86.7351C86.7645 25.322 86.7883 25.2981 86.7883 25.2686V19.2201C87.1356 19.3931 87.6663 19.3616 88.1662 19.1013C88.8607 18.7395 89.231 18.0751 88.9934 17.6172C88.7557 17.1594 88.0001 17.0815 87.3056 17.4433C86.7259 17.7451 86.4443 18.2593 86.4469 18.6851Z" fill="#AD4328"/>
<path d="M79.9694 16.809V16.812L77.0557 17.4067C77.0329 17.4113 77.0165 17.4313 77.0165 17.4546V17.8386V18.2281V21.1336C76.8035 21.0275 76.478 21.0467 76.1714 21.2065C75.7454 21.4285 75.5183 21.836 75.6641 22.1169C75.8099 22.3977 76.2734 22.4455 76.6994 22.2236C77.0549 22.0384 77.2883 21.7231 77.2867 21.4619V18.2085C77.2867 18.1881 77.3011 18.1704 77.3211 18.1663L79.9179 17.6384C79.9446 17.633 79.9695 17.6534 79.9695 17.6806V20.3942C79.7565 20.2881 79.431 20.3074 79.1244 20.4672C78.6984 20.6891 78.4713 21.0966 78.6171 21.3775C78.7629 21.6584 79.2263 21.7061 79.6523 21.4842C80.0079 21.299 80.224 20.9847 80.2013 20.7224H80.2034V16.8236C80.2034 16.7929 80.1755 16.7697 80.1453 16.7754L79.9694 16.809Z" fill="#AD4328"/>
<path d="M95.9249 2.49641C95.5393 2.3076 95.2888 1.94343 95.1514 1.54576C95.0944 1.38083 95.0552 1.20988 95.03 1.03723C95.0188 0.959982 95.0139 0.437007 95.009 0.359058C95.005 0.295053 95.0106 0.21911 94.9884 0.158316C94.9461 0.042645 94.7027 -0.024671 94.5891 0.00843509C94.5011 0.0341174 94.5006 0.147781 94.5056 0.221819C94.5133 0.335182 94.5141 0.892066 94.5137 1.00603C94.5129 1.23527 94.5121 1.4646 94.5114 1.69393C94.5104 1.99389 94.5094 2.29386 94.5083 2.59382C94.5071 2.93942 94.506 3.28503 94.5048 3.63074C94.5036 3.99701 94.5023 4.36339 94.5011 4.72966C94.4999 5.09162 94.4986 5.45368 94.4974 5.81564C94.4963 6.1484 94.4951 6.48107 94.494 6.81384C94.4931 7.09223 94.4921 7.37072 94.4912 7.64911C94.4905 7.84825 94.4897 8.04749 94.4891 8.24662C94.4888 8.34153 94.4885 8.43643 94.4881 8.53134C94.4881 8.53234 94.4871 8.54438 94.4881 8.54488C94.0019 8.3026 93.2588 8.34654 92.5588 8.71121C91.5863 9.21784 91.0678 10.1482 91.4006 10.7893C91.7333 11.4304 92.5744 11.5706 93.5469 11.064C94.3586 10.6412 94.8913 9.92129 94.8876 9.32498V3.47815C96.0747 3.44183 97.1751 4.88074 97.1751 4.88074C98.2829 6.8352 96.4862 8.78244 96.4862 8.78244C96.3672 9.15162 96.6106 9.07367 96.6106 9.07367C97.246 8.69015 97.984 7.47967 97.984 7.47967C99.6833 4.63526 95.9249 2.49641 95.9249 2.49641Z" fill="#AD4328"/>
<path d="M16.9455 25.3217H16.21H11.9693V26.0909V26.246V31.1665C11.6366 31.0007 11.1284 31.0308 10.6496 31.2803C9.98432 31.6268 9.62962 32.2633 9.85724 32.7019C10.0849 33.1405 10.8087 33.215 11.4739 32.8685C12.0291 32.5793 12.3935 32.0868 12.391 31.6789V26.3958H16.2101H16.5806V31.1545C16.2479 30.9888 15.7397 31.0189 15.2609 31.2684C14.5956 31.6149 14.2409 32.2513 14.4685 32.6899C14.6962 33.1285 15.42 33.2031 16.0852 32.8566C16.6404 32.5673 16.9779 32.0765 16.9424 31.667H16.9456V26.3959H21.4308V31.1667C21.0981 31.0009 20.5899 31.031 20.111 31.2805C19.4458 31.627 19.0911 32.2635 19.3187 32.7021C19.5463 33.1407 20.2701 33.2152 20.9354 32.8687C21.4905 32.5795 21.855 32.087 21.8525 31.6791V26.396V25.6381V25.3221H16.9455V25.3217Z" fill="#AD4328"/>
<path d="M60.9588 11.9275C60.9407 11.8712 60.9195 11.8159 60.8966 11.7611C61.0849 11.2769 60.9836 10.8873 60.9836 10.8873C60.962 10.8196 60.9354 10.7533 60.9068 10.6877C61.0814 10.2158 60.9836 9.84024 60.9836 9.84024C60.7422 9.08522 60.044 8.45861 59.3721 8.04098C58.8196 7.69748 58.5703 7.60849 58.407 7.08562C58.402 7.0475 58.3943 7.00817 58.3816 6.97346C58.3789 6.96603 58.3739 6.95971 58.3694 6.95329C58.3692 6.95239 58.3689 6.95159 58.3687 6.95068C58.3687 6.95109 58.3685 6.95139 58.3685 6.95189C58.3183 6.88367 58.1715 6.86581 58.0943 6.88839C58.0285 6.90755 58.0319 6.9853 58.0319 7.0479C58.0319 7.06154 58.0323 7.07589 58.0324 7.08983L58.0194 13.2607C57.6559 13.0796 57.1003 13.1296 56.577 13.4022C55.8499 13.781 55.4623 14.4765 55.711 14.9558C55.9598 15.4352 56.7509 15.5167 57.4778 15.138C58.0847 14.8219 58.3207 14.2999 58.3179 13.8541V10.2672C58.4894 10.3683 58.5061 10.3885 58.7746 10.5116C59.7354 10.9523 60.8569 12.131 60.4657 13.1945C60.4136 13.336 60.2533 13.6026 60.1829 13.7355C60.023 14.0376 60.4356 13.9561 60.6011 13.7123C60.9703 13.1682 61.1566 12.5464 60.9588 11.9275ZM58.7995 8.4243C59.8035 8.75436 60.4751 9.17471 60.6273 10.1823C60.6273 10.1823 60.6276 10.1913 60.6284 10.2065C60.299 9.75376 59.8296 9.37234 59.3722 9.08783C58.9204 8.80693 58.6538 8.67049 58.4802 8.34114C58.5541 8.36301 58.6478 8.37444 58.7995 8.4243ZM59.3474 10.1282C58.9943 9.90856 58.633 9.63649 58.3628 9.3289C58.4638 9.40956 58.5589 9.3922 58.7996 9.47136C59.8036 9.80142 60.4752 10.2218 60.6274 11.2294C60.6274 11.2294 60.6282 11.2504 60.6302 11.2843C60.2996 10.8152 59.8173 10.4204 59.3474 10.1282Z" fill="#AD4328"/>
<path d="M65.886 39.349L66.1159 41.2729L67.4202 41.422L66.1159 41.5712L65.886 43.4951L65.6561 41.5712L64.3518 41.422L65.6561 41.2729L65.886 39.349Z" fill="white"/>
<path d="M54.1281 22.0115L54.358 23.9355L55.6622 24.0845L54.358 24.2337L54.1281 26.1576L53.8982 24.2337L52.5939 24.0845L53.8982 23.9355L54.1281 22.0115Z" fill="white"/>
<path d="M77.8526 32.0155L77.4208 33.9043L78.5982 34.4857L77.3202 34.185L76.4556 35.9183L76.8874 34.0295L75.71 33.4481L76.9879 33.7488L77.8526 32.0155Z" fill="white"/>
<path opacity="0.67" d="M37.0719 12.9269L37.3784 14.5194L38.4762 14.5661L37.3961 14.7685L37.3187 16.3884L37.0122 14.7959L35.9144 14.7494L36.9945 14.5469L37.0719 12.9269Z" fill="white"/>
</svg>
