<svg width="50" height="50" viewBox="0 0 50 50" fill="none" xmlns="http://www.w3.org/2000/svg">
<path d="M41.2109 22.0769H30.4688V12.7019H26.9531C28.0413 11.2491 28.626 9.48112 28.6186 7.66602C28.6186 4.9668 27.3413 2.43057 25.2853 1.04727L24.413 0.460358L23.5408 1.04727C21.4844 2.43077 20.2075 4.9669 20.2075 7.66602C20.2002 9.48114 20.7851 11.2491 21.8734 12.7018H17.9688V22.0768H8.78906C7.28738 22.0785 5.8477 22.6758 4.78585 23.7376C3.724 24.7995 3.12671 26.2392 3.125 27.7408V45.3125C3.12593 46.141 3.45547 46.9353 4.04132 47.5212C4.62717 48.107 5.42148 48.4366 6.25 48.4375H43.75C44.5785 48.4366 45.3728 48.107 45.9587 47.5212C46.5445 46.9353 46.8741 46.141 46.875 45.3125V27.7409C46.8733 26.2392 46.276 24.7996 45.2141 23.7377C44.1523 22.6759 42.7126 22.0786 41.2109 22.0769ZM24.413 4.44747C25.0956 5.29551 25.4936 6.4461 25.4936 7.66612C25.4936 8.88614 25.0956 10.0368 24.413 10.8848C23.7305 10.0368 23.3325 8.88614 23.3325 7.66602C23.3325 6.44591 23.7305 5.29551 24.413 4.44747ZM21.0938 15.8269H27.3438V22.0769H21.0938V15.8269ZM6.25 27.7409C6.25078 27.0678 6.51853 26.4224 6.99453 25.9464C7.47053 25.4704 8.1159 25.2026 8.78906 25.2019H41.2109C41.8841 25.2026 42.5295 25.4704 43.0055 25.9464C43.4815 26.4224 43.7492 27.0678 43.75 27.7409V30.8246L41.6406 31.7554C41.2281 31.9369 40.7823 32.0306 40.3316 32.0306C39.8809 32.0306 39.4351 31.9369 39.0226 31.7554L35.3516 30.1356L31.6797 31.7553C31.2671 31.9368 30.8213 32.0306 30.3706 32.0306C29.9199 32.0306 29.4741 31.9368 29.0615 31.7553L25.3906 30.1355L21.7188 31.7552C21.3062 31.9367 20.8604 32.0305 20.4097 32.0305C19.9589 32.0305 19.5131 31.9367 19.1006 31.7552L15.4297 30.1356L11.7585 31.7552C11.3459 31.9367 10.9001 32.0305 10.4494 32.0305C9.99868 32.0305 9.55288 31.9367 9.14033 31.7552L6.25 30.4802V27.7409ZM43.75 45.3125H6.25V33.8958L7.87871 34.6144C8.6888 34.9708 9.56417 35.1549 10.4492 35.1549C11.3343 35.1549 12.2096 34.9708 13.0197 34.6144L15.4297 33.5511L17.8397 34.6144C18.6498 34.9708 19.5252 35.1549 20.4102 35.1549C21.2952 35.1549 22.1706 34.9708 22.9807 34.6144L25.3906 33.5511L27.8005 34.6144C28.6105 34.9708 29.4859 35.1549 30.3709 35.1549C31.2559 35.1549 32.1313 34.9708 32.9413 34.6144L35.3516 33.5511L37.7615 34.6145C38.5716 34.9709 39.4469 35.1549 40.3319 35.1549C41.2169 35.1549 42.0922 34.9709 42.9022 34.6145L43.7512 34.24L43.752 45.3125H43.75Z" fill="white"/>
</svg>
